# Blender 5.1.1
# www.blender.org
mtllib goute.mtl
o Sphere
v 0.000000 2.241542 0.000000
v 0.000000 1.407258 -0.555570
v 0.000000 0.843988 -0.831470
v 0.000000 0.308973 -0.980785
v 0.000000 0.061718 -1.000000
v 0.000000 -0.166955 -0.980785
v 0.000000 -0.554388 -0.831470
v 0.000000 -1.000000 0.000000
v 0.038060 1.969275 -0.191342
v 0.074658 1.690148 -0.375330
v 0.108386 1.407258 -0.544895
v 0.137950 1.123997 -0.693520
v 0.162212 0.843988 -0.815493
v 0.180240 0.571022 -0.906127
v 0.191342 0.308973 -0.961940
v 0.195090 0.061718 -0.980785
v 0.191342 -0.166955 -0.961940
v 0.180240 -0.373437 -0.906127
v 0.162212 -0.554388 -0.815493
v 0.137950 -0.707107 -0.693520
v 0.108386 -0.831470 -0.544895
v 0.074658 -0.923880 -0.375330
v 0.038060 -0.980785 -0.191342
v 0.074658 1.969275 -0.180240
v 0.146447 1.690148 -0.353553
v 0.212608 1.407258 -0.513280
v 0.270598 1.123997 -0.653281
v 0.318190 0.843988 -0.768178
v 0.353553 0.571022 -0.853553
v 0.375330 0.308973 -0.906127
v 0.382683 0.061718 -0.923879
v 0.375330 -0.166955 -0.906127
v 0.353553 -0.373437 -0.853553
v 0.318190 -0.554388 -0.768178
v 0.270598 -0.707107 -0.653281
v 0.212608 -0.831470 -0.513280
v 0.146447 -0.923880 -0.353553
v 0.074658 -0.980785 -0.180240
v 0.108386 1.969275 -0.162212
v 0.212608 1.690148 -0.318190
v 0.308658 1.407258 -0.461940
v 0.392847 1.123997 -0.587938
v 0.461940 0.843988 -0.691342
v 0.513280 0.571022 -0.768178
v 0.544895 0.308973 -0.815493
v 0.555570 0.061718 -0.831469
v 0.544895 -0.166955 -0.815493
v 0.513280 -0.373437 -0.768178
v 0.461940 -0.554388 -0.691342
v 0.392847 -0.707107 -0.587938
v 0.308658 -0.831470 -0.461940
v 0.212608 -0.923880 -0.318190
v 0.108386 -0.980785 -0.162212
v 0.137950 1.969275 -0.137950
v 0.270598 1.690148 -0.270598
v 0.392847 1.407258 -0.392847
v 0.500000 1.123997 -0.500000
v 0.587938 0.843988 -0.587938
v 0.653281 0.571022 -0.653281
v 0.693520 0.308973 -0.693520
v 0.707107 0.061718 -0.707107
v 0.693520 -0.166955 -0.693520
v 0.653281 -0.373437 -0.653281
v 0.587938 -0.554388 -0.587938
v 0.500000 -0.707107 -0.500000
v 0.392847 -0.831470 -0.392847
v 0.270598 -0.923880 -0.270598
v 0.137950 -0.980785 -0.137950
v 0.162212 1.969275 -0.108386
v 0.318190 1.690148 -0.212608
v 0.461940 1.407258 -0.308658
v 0.587938 1.123997 -0.392847
v 0.691342 0.843988 -0.461940
v 0.768178 0.571022 -0.513280
v 0.815493 0.308973 -0.544895
v 0.831470 0.061718 -0.555570
v 0.815493 -0.166955 -0.544895
v 0.768178 -0.373437 -0.513280
v 0.691342 -0.554388 -0.461940
v 0.587938 -0.707107 -0.392847
v 0.461940 -0.831470 -0.308658
v 0.318190 -0.923880 -0.212608
v 0.162212 -0.980785 -0.108386
v 0.180240 1.969275 -0.074658
v 0.353553 1.690148 -0.146447
v 0.513280 1.407258 -0.212607
v 0.653281 1.123997 -0.270598
v 0.768178 0.843988 -0.318190
v 0.853553 0.571022 -0.353553
v 0.906127 0.308973 -0.375330
v 0.923879 0.061718 -0.382683
v 0.906127 -0.166955 -0.375330
v 0.853553 -0.373437 -0.353553
v 0.768178 -0.554388 -0.318190
v 0.653281 -0.707107 -0.270598
v 0.513280 -0.831470 -0.212607
v 0.353553 -0.923880 -0.146447
v 0.180240 -0.980785 -0.074658
v 0.191342 1.969275 -0.038060
v 0.375330 1.690148 -0.074658
v 0.544895 1.407258 -0.108386
v 0.693520 1.123997 -0.137950
v 0.815493 0.843988 -0.162212
v 0.906127 0.571022 -0.180240
v 0.961940 0.308973 -0.191342
v 0.980785 0.061718 -0.195090
v 0.961940 -0.166955 -0.191342
v 0.906127 -0.373437 -0.180240
v 0.815493 -0.554388 -0.162212
v 0.693520 -0.707107 -0.137950
v 0.544895 -0.831470 -0.108386
v 0.375330 -0.923880 -0.074658
v 0.191342 -0.980785 -0.038060
v 0.195090 1.969275 0.000000
v 0.382683 1.690148 0.000000
v 0.555570 1.407258 0.000000
v 0.707107 1.123997 -0.000000
v 0.831469 0.843988 0.000000
v 0.923879 0.571022 -0.000000
v 0.980785 0.308973 0.000000
v 1.000000 0.061718 0.000000
v 0.980785 -0.166955 0.000000
v 0.923879 -0.373437 -0.000000
v 0.831469 -0.554388 0.000000
v 0.707107 -0.707107 -0.000000
v 0.555570 -0.831470 0.000000
v 0.382683 -0.923880 0.000000
v 0.195090 -0.980785 0.000000
v 0.191342 1.969275 0.038060
v 0.375330 1.690148 0.074658
v 0.544895 1.407258 0.108386
v 0.693520 1.123997 0.137950
v 0.815493 0.843988 0.162212
v 0.906127 0.571022 0.180240
v 0.961940 0.308973 0.191342
v 0.980785 0.061718 0.195090
v 0.961940 -0.166955 0.191342
v 0.906127 -0.373437 0.180240
v 0.815493 -0.554388 0.162212
v 0.693520 -0.707107 0.137950
v 0.544895 -0.831470 0.108386
v 0.375330 -0.923880 0.074658
v 0.191342 -0.980785 0.038060
v 0.180240 1.969275 0.074658
v 0.353553 1.690148 0.146447
v 0.513280 1.407258 0.212608
v 0.653281 1.123997 0.270598
v 0.768178 0.843988 0.318190
v 0.853553 0.571022 0.353553
v 0.906127 0.308973 0.375330
v 0.923879 0.061718 0.382683
v 0.906127 -0.166955 0.375330
v 0.853553 -0.373437 0.353553
v 0.768178 -0.554388 0.318190
v 0.653281 -0.707107 0.270598
v 0.513280 -0.831470 0.212608
v 0.353553 -0.923880 0.146447
v 0.180240 -0.980785 0.074658
v 0.162212 1.969275 0.108386
v 0.318190 1.690148 0.212608
v 0.461940 1.407258 0.308658
v 0.587938 1.123997 0.392847
v 0.691341 0.843988 0.461940
v 0.768178 0.571022 0.513280
v 0.815493 0.308973 0.544895
v 0.831469 0.061718 0.555570
v 0.815493 -0.166955 0.544895
v 0.768178 -0.373437 0.513280
v 0.691341 -0.554388 0.461940
v 0.587938 -0.707107 0.392847
v 0.461940 -0.831470 0.308658
v 0.318190 -0.923880 0.212608
v 0.162212 -0.980785 0.108386
v 0.137950 1.969275 0.137950
v 0.270598 1.690148 0.270598
v 0.392847 1.407258 0.392847
v 0.500000 1.123997 0.500000
v 0.587938 0.843988 0.587938
v 0.653281 0.571022 0.653281
v 0.693520 0.308973 0.693520
v 0.707106 0.061718 0.707107
v 0.693520 -0.166955 0.693520
v 0.653281 -0.373437 0.653281
v 0.587938 -0.554388 0.587938
v 0.500000 -0.707107 0.500000
v 0.392847 -0.831470 0.392847
v 0.270598 -0.923880 0.270598
v 0.137950 -0.980785 0.137950
v 0.108386 1.969275 0.162212
v 0.212607 1.690148 0.318190
v 0.308658 1.407258 0.461940
v 0.392847 1.123997 0.587938
v 0.461940 0.843988 0.691342
v 0.513280 0.571022 0.768178
v 0.544895 0.308973 0.815493
v 0.555570 0.061718 0.831469
v 0.544895 -0.166955 0.815493
v 0.513280 -0.373437 0.768178
v 0.461940 -0.554388 0.691342
v 0.392847 -0.707107 0.587938
v 0.308658 -0.831470 0.461940
v 0.212607 -0.923880 0.318190
v 0.108386 -0.980785 0.162212
v 0.074658 1.969275 0.180240
v 0.146447 1.690148 0.353553
v 0.212607 1.407258 0.513280
v 0.270598 1.123997 0.653281
v 0.318189 0.843988 0.768178
v 0.353553 0.571022 0.853553
v 0.375330 0.308973 0.906127
v 0.382683 0.061718 0.923879
v 0.375330 -0.166955 0.906127
v 0.353553 -0.373437 0.853553
v 0.318189 -0.554388 0.768178
v 0.270598 -0.707107 0.653281
v 0.212607 -0.831470 0.513280
v 0.146447 -0.923880 0.353553
v 0.074658 -0.980785 0.180240
v 0.038060 1.969275 0.191342
v 0.074658 1.690148 0.375330
v 0.108386 1.407258 0.544895
v 0.137950 1.123997 0.693520
v 0.162212 0.843988 0.815493
v 0.180240 0.571022 0.906127
v 0.191342 0.308973 0.961939
v 0.195090 0.061718 0.980785
v 0.191342 -0.166955 0.961939
v 0.180240 -0.373437 0.906127
v 0.162212 -0.554388 0.815493
v 0.137950 -0.707107 0.693520
v 0.108386 -0.831470 0.544895
v 0.074658 -0.923880 0.375330
v 0.038060 -0.980785 0.191342
v -0.000000 1.969275 0.195090
v -0.000000 1.690148 0.382683
v -0.000000 1.407258 0.555570
v -0.000000 1.123997 0.707107
v -0.000000 0.843988 0.831469
v 0.000000 0.571022 0.923879
v -0.000000 0.308973 0.980785
v -0.000000 0.061718 0.999999
v -0.000000 -0.166955 0.980785
v 0.000000 -0.373437 0.923879
v -0.000000 -0.554388 0.831469
v -0.000000 -0.707107 0.707107
v -0.000000 -0.831470 0.555570
v -0.000000 -0.923880 0.382683
v -0.000000 -0.980785 0.195090
v -0.038060 1.969275 0.191342
v -0.074658 1.690148 0.375330
v -0.108386 1.407258 0.544895
v -0.137950 1.123997 0.693520
v -0.162212 0.843988 0.815493
v -0.180240 0.571022 0.906127
v -0.191342 0.308973 0.961939
v -0.195091 0.061718 0.980785
v -0.191342 -0.166955 0.961939
v -0.180240 -0.373437 0.906127
v -0.162212 -0.554388 0.815493
v -0.137950 -0.707107 0.693520
v -0.108386 -0.831470 0.544895
v -0.074658 -0.923880 0.375330
v -0.038060 -0.980785 0.191342
v -0.074658 1.969275 0.180240
v -0.146447 1.690148 0.353553
v -0.212608 1.407258 0.513280
v -0.270598 1.123997 0.653281
v -0.318190 0.843988 0.768177
v -0.353553 0.571022 0.853553
v -0.375330 0.308973 0.906127
v -0.382683 0.061718 0.923879
v -0.375330 -0.166955 0.906127
v -0.353553 -0.373437 0.853553
v -0.318190 -0.554388 0.768177
v -0.270598 -0.707107 0.653281
v -0.212608 -0.831470 0.513280
v -0.146447 -0.923880 0.353553
v -0.074658 -0.980785 0.180240
v -0.108386 1.969275 0.162212
v -0.212608 1.690148 0.318190
v -0.308658 1.407258 0.461939
v -0.392847 1.123997 0.587938
v -0.461940 0.843988 0.691341
v -0.513280 0.571022 0.768178
v -0.544895 0.308973 0.815493
v -0.555570 0.061718 0.831469
v -0.544895 -0.166955 0.815493
v -0.513280 -0.373437 0.768178
v -0.461940 -0.554388 0.691341
v -0.392847 -0.707107 0.587938
v -0.308658 -0.831470 0.461939
v -0.212608 -0.923880 0.318190
v -0.108386 -0.980785 0.162212
v -0.137950 1.969275 0.137950
v -0.270598 1.690148 0.270598
v -0.392847 1.407258 0.392847
v -0.500000 1.123997 0.500000
v -0.587938 0.843988 0.587937
v -0.653281 0.571022 0.653281
v -0.693520 0.308973 0.693520
v -0.707106 0.061718 0.707106
v -0.693520 -0.166955 0.693520
v -0.653281 -0.373437 0.653281
v -0.587938 -0.554388 0.587937
v -0.500000 -0.707107 0.500000
v -0.392847 -0.831470 0.392847
v -0.270598 -0.923880 0.270598
v -0.137950 -0.980785 0.137950
v -0.162212 1.969275 0.108386
v -0.318190 1.690148 0.212607
v -0.461940 1.407258 0.308658
v -0.587938 1.123997 0.392847
v -0.691341 0.843988 0.461939
v -0.768177 0.571022 0.513280
v -0.815493 0.308973 0.544895
v -0.831469 0.061718 0.555569
v -0.815493 -0.166955 0.544895
v -0.768177 -0.373437 0.513280
v -0.691341 -0.554388 0.461939
v -0.587938 -0.707107 0.392847
v -0.461940 -0.831470 0.308658
v -0.318190 -0.923880 0.212607
v -0.162212 -0.980785 0.108386
v -0.180240 1.969275 0.074658
v -0.353553 1.690148 0.146447
v -0.513280 1.407258 0.212607
v -0.653281 1.123997 0.270598
v -0.768177 0.843988 0.318189
v -0.853553 0.571022 0.353553
v -0.906127 0.308973 0.375330
v -0.923879 0.061718 0.382683
v -0.906127 -0.166955 0.375330
v -0.853553 -0.373437 0.353553
v -0.768177 -0.554388 0.318189
v -0.653281 -0.707107 0.270598
v -0.513280 -0.831470 0.212607
v -0.353553 -0.923880 0.146447
v -0.180240 -0.980785 0.074658
v -0.191342 1.969275 0.038060
v -0.375330 1.690148 0.074658
v -0.544895 1.407258 0.108386
v -0.693520 1.123997 0.137950
v -0.815493 0.843988 0.162211
v -0.906127 0.571022 0.180240
v -0.961939 0.308973 0.191341
v -0.980784 0.061718 0.195090
v -0.961939 -0.166955 0.191341
v -0.906127 -0.373437 0.180240
v -0.815493 -0.554388 0.162211
v -0.693520 -0.707107 0.137950
v -0.544895 -0.831470 0.108386
v -0.375330 -0.923880 0.074658
v -0.191342 -0.980785 0.038060
v -0.195090 1.969275 -0.000000
v -0.382683 1.690148 -0.000000
v -0.555570 1.407259 -0.000000
v -0.707107 1.123997 -0.000000
v -0.831469 0.843988 -0.000000
v -0.923879 0.571022 -0.000000
v -0.980785 0.308973 -0.000000
v -0.999999 0.061718 -0.000000
v -0.980785 -0.166955 -0.000000
v -0.923879 -0.373437 -0.000000
v -0.831469 -0.554388 -0.000000
v -0.707107 -0.707107 -0.000000
v -0.555570 -0.831470 -0.000000
v -0.382683 -0.923880 -0.000000
v -0.195090 -0.980785 -0.000000
v -0.191342 1.969275 -0.038060
v -0.375330 1.690148 -0.074658
v -0.544895 1.407258 -0.108386
v -0.693520 1.123997 -0.137950
v -0.815493 0.843988 -0.162212
v -0.906127 0.571022 -0.180240
v -0.961939 0.308973 -0.191342
v -0.980784 0.061718 -0.195091
v -0.961939 -0.166955 -0.191342
v -0.906127 -0.373437 -0.180240
v -0.815493 -0.554388 -0.162212
v -0.693520 -0.707107 -0.137950
v -0.544895 -0.831470 -0.108386
v -0.375330 -0.923880 -0.074658
v -0.191342 -0.980785 -0.038060
v -0.180240 1.969275 -0.074658
v -0.353553 1.690148 -0.146447
v -0.513279 1.407259 -0.212607
v -0.653281 1.123997 -0.270598
v -0.768177 0.843988 -0.318190
v -0.853553 0.571022 -0.353553
v -0.906127 0.308973 -0.375330
v -0.923878 0.061718 -0.382683
v -0.906127 -0.166955 -0.375330
v -0.853553 -0.373437 -0.353553
v -0.768177 -0.554388 -0.318190
v -0.653281 -0.707107 -0.270598
v -0.513279 -0.831470 -0.212607
v -0.353553 -0.923880 -0.146447
v -0.180240 -0.980785 -0.074658
v -0.162212 1.969275 -0.108386
v -0.318189 1.690148 -0.212607
v -0.461939 1.407259 -0.308658
v -0.587938 1.123997 -0.392847
v -0.691341 0.843988 -0.461940
v -0.768177 0.571022 -0.513280
v -0.815493 0.308973 -0.544895
v -0.831468 0.061718 -0.555570
v -0.815493 -0.166955 -0.544895
v -0.768177 -0.373437 -0.513280
v -0.691341 -0.554388 -0.461940
v -0.587938 -0.707107 -0.392847
v -0.461939 -0.831470 -0.308658
v -0.318189 -0.923880 -0.212607
v -0.162212 -0.980785 -0.108386
v -0.137950 1.969275 -0.137950
v -0.270598 1.690148 -0.270598
v -0.392847 1.407259 -0.392847
v -0.500000 1.123997 -0.500000
v -0.587937 0.843988 -0.587938
v -0.653281 0.571022 -0.653281
v -0.693519 0.308973 -0.693520
v -0.707106 0.061718 -0.707106
v -0.693519 -0.166955 -0.693520
v -0.653281 -0.373437 -0.653281
v -0.587937 -0.554388 -0.587938
v -0.500000 -0.707107 -0.500000
v -0.392847 -0.831470 -0.392847
v -0.270598 -0.923880 -0.270598
v -0.137950 -0.980785 -0.137950
v -0.108386 1.969275 -0.162212
v -0.212607 1.690148 -0.318190
v -0.308658 1.407259 -0.461939
v -0.392847 1.123997 -0.587938
v -0.461939 0.843988 -0.691341
v -0.513280 0.571022 -0.768177
v -0.544895 0.308973 -0.815493
v -0.555569 0.061718 -0.831469
v -0.544895 -0.166955 -0.815493
v -0.513280 -0.373437 -0.768177
v -0.461939 -0.554388 -0.691341
v -0.392847 -0.707107 -0.587938
v -0.308658 -0.831470 -0.461939
v -0.212607 -0.923880 -0.318190
v -0.108386 -0.980785 -0.162212
v -0.074658 1.969275 -0.180240
v -0.146446 1.690148 -0.353553
v -0.212607 1.407259 -0.513279
v -0.270598 1.123997 -0.653281
v -0.318189 0.843988 -0.768177
v -0.353553 0.571022 -0.853553
v -0.375330 0.308973 -0.906127
v -0.382683 0.061718 -0.923879
v -0.375330 -0.166955 -0.906127
v -0.353553 -0.373437 -0.853553
v -0.318189 -0.554388 -0.768177
v -0.270598 -0.707107 -0.653281
v -0.212607 -0.831470 -0.513279
v -0.146446 -0.923880 -0.353553
v -0.074658 -0.980785 -0.180240
v -0.038060 1.969275 -0.191342
v -0.074658 1.690148 -0.375330
v -0.108386 1.407259 -0.544895
v -0.137950 1.123997 -0.693520
v -0.162211 0.843988 -0.815493
v -0.180240 0.571022 -0.906127
v -0.191341 0.308973 -0.961939
v -0.195090 0.061718 -0.980784
v -0.191341 -0.166955 -0.961939
v -0.180240 -0.373437 -0.906127
v -0.162211 -0.554388 -0.815493
v -0.137950 -0.707107 -0.693520
v -0.108386 -0.831470 -0.544895
v -0.074658 -0.923880 -0.375330
v -0.038060 -0.980785 -0.191342
v 0.000000 1.969275 -0.195090
v 0.000000 1.690148 -0.382683
v 0.000000 1.123997 -0.707107
v 0.000000 0.571022 -0.923879
v 0.000000 -0.373437 -0.923879
v 0.000000 -0.707107 -0.707107
v 0.000000 -0.831470 -0.555570
v 0.000000 -0.923880 -0.382683
v 0.000000 -0.980785 -0.195090
vn 0.0286 -0.9565 -0.2902
vn 0.0977 0.0771 -0.9922
vn 0.0798 0.5806 -0.8103
vn 0.0097 -0.9951 -0.0980
vn 0.0977 -0.0833 -0.9917
vn 0.0815 0.5559 -0.8272
vn 0.0945 -0.2645 -0.9597
vn 0.0837 0.5196 -0.8503
vn 0.0874 -0.4531 -0.8872
vn 0.0865 0.4699 -0.8784
vn 0.0761 -0.6296 -0.7732
vn 0.0897 0.4043 -0.9102
vn 0.0624 -0.7715 -0.6332
vn 0.0929 0.3193 -0.9431
vn 0.0464 -0.8810 -0.4709
vn 0.0958 0.2112 -0.9727
vn 0.2751 0.3193 -0.9069
vn 0.1374 -0.8810 -0.4528
vn 0.2837 0.2112 -0.9353
vn 0.0846 -0.9565 -0.2790
vn 0.2894 0.0771 -0.9541
vn 0.2363 0.5806 -0.7791
vn 0.0286 -0.9951 -0.0942
vn 0.2893 -0.0833 -0.9536
vn 0.2413 0.5559 -0.7954
vn 0.2799 -0.2645 -0.9229
vn 0.2480 0.5196 -0.8176
vn 0.2588 -0.4531 -0.8531
vn 0.2562 0.4699 -0.8447
vn 0.2255 -0.6296 -0.7435
vn 0.2655 0.4043 -0.8753
vn 0.1847 -0.7715 -0.6088
vn 0.4546 -0.2645 -0.8505
vn 0.4028 0.5196 -0.7535
vn 0.4202 -0.4531 -0.7862
vn 0.4161 0.4699 -0.7785
vn 0.3662 -0.6296 -0.6852
vn 0.4312 0.4043 -0.8066
vn 0.2999 -0.7715 -0.5611
vn 0.4467 0.3193 -0.8358
vn 0.2230 -0.8810 -0.4173
vn 0.4608 0.2112 -0.8620
vn 0.1374 -0.9565 -0.2571
vn 0.4700 0.0771 -0.8793
vn 0.3838 0.5806 -0.7181
vn 0.0464 -0.9951 -0.0869
vn 0.4698 -0.0833 -0.8789
vn 0.3918 0.5559 -0.7331
vn 0.3002 -0.8810 -0.3658
vn 0.6201 0.2112 -0.7556
vn 0.1850 -0.9565 -0.2254
vn 0.6325 0.0771 -0.7707
vn 0.5165 0.5806 -0.6294
vn 0.0625 -0.9951 -0.0761
vn 0.6322 -0.0833 -0.7703
vn 0.5273 0.5559 -0.6425
vn 0.6118 -0.2645 -0.7455
vn 0.5420 0.5196 -0.6604
vn 0.5655 -0.4531 -0.6891
vn 0.5600 0.4699 -0.6823
vn 0.4929 -0.6296 -0.6006
vn 0.5802 0.4043 -0.7070
vn 0.4036 -0.7715 -0.4918
vn 0.6012 0.3193 -0.7326
vn 0.6891 -0.4531 -0.5655
vn 0.6823 0.4699 -0.5600
vn 0.6006 -0.6296 -0.4929
vn 0.7070 0.4043 -0.5802
vn 0.4918 -0.7715 -0.4036
vn 0.7326 0.3193 -0.6012
vn 0.3658 -0.8810 -0.3002
vn 0.7556 0.2112 -0.6201
vn 0.2254 -0.9566 -0.1850
vn 0.7707 0.0771 -0.6325
vn 0.6294 0.5806 -0.5165
vn 0.0761 -0.9951 -0.0625
vn 0.7703 -0.0833 -0.6322
vn 0.6425 0.5559 -0.5273
vn 0.7455 -0.2645 -0.6118
vn 0.6604 0.5196 -0.5420
vn 0.2571 -0.9565 -0.1374
vn 0.8793 0.0771 -0.4700
vn 0.7181 0.5806 -0.3838
vn 0.0869 -0.9951 -0.0464
vn 0.8789 -0.0833 -0.4698
vn 0.7331 0.5559 -0.3918
vn 0.8505 -0.2645 -0.4546
vn 0.7535 0.5196 -0.4028
vn 0.7862 -0.4531 -0.4202
vn 0.7785 0.4699 -0.4161
vn 0.6852 -0.6296 -0.3662
vn 0.8066 0.4043 -0.4312
vn 0.5611 -0.7715 -0.2999
vn 0.8358 0.3193 -0.4467
vn 0.4173 -0.8810 -0.2230
vn 0.8620 0.2112 -0.4608
vn 0.8447 0.4699 -0.2562
vn 0.7435 -0.6296 -0.2255
vn 0.8753 0.4043 -0.2655
vn 0.6088 -0.7715 -0.1847
vn 0.9069 0.3193 -0.2751
vn 0.4528 -0.8810 -0.1374
vn 0.9353 0.2112 -0.2837
vn 0.2790 -0.9565 -0.0846
vn 0.9541 0.0771 -0.2894
vn 0.7791 0.5806 -0.2363
vn 0.0942 -0.9951 -0.0286
vn 0.9536 -0.0833 -0.2893
vn 0.7954 0.5559 -0.2413
vn 0.9229 -0.2645 -0.2799
vn 0.8176 0.5196 -0.2480
vn 0.8531 -0.4531 -0.2588
vn 0.9922 0.0771 -0.0977
vn 0.8103 0.5806 -0.0798
vn 0.0980 -0.9951 -0.0097
vn 0.9917 -0.0833 -0.0977
vn 0.8272 0.5559 -0.0815
vn 0.9597 -0.2645 -0.0945
vn 0.8503 0.5196 -0.0837
vn 0.8872 -0.4531 -0.0874
vn 0.8784 0.4699 -0.0865
vn 0.7732 -0.6296 -0.0761
vn 0.9102 0.4043 -0.0897
vn 0.6332 -0.7715 -0.0624
vn 0.9431 0.3193 -0.0929
vn 0.4709 -0.8810 -0.0464
vn 0.9727 0.2112 -0.0958
vn 0.2902 -0.9565 -0.0286
vn 0.7732 -0.6296 0.0762
vn 0.9102 0.4043 0.0897
vn 0.6332 -0.7715 0.0624
vn 0.9431 0.3193 0.0929
vn 0.4709 -0.8810 0.0464
vn 0.9727 0.2112 0.0958
vn 0.2902 -0.9565 0.0286
vn 0.9922 0.0771 0.0977
vn 0.8103 0.5806 0.0798
vn 0.0980 -0.9951 0.0097
vn 0.9917 -0.0833 0.0977
vn 0.8272 0.5559 0.0815
vn 0.9597 -0.2645 0.0945
vn 0.8503 0.5196 0.0837
vn 0.8872 -0.4531 0.0874
vn 0.8784 0.4699 0.0865
vn 0.7791 0.5806 0.2363
vn 0.0942 -0.9951 0.0286
vn 0.9536 -0.0833 0.2893
vn 0.7954 0.5559 0.2413
vn 0.9229 -0.2645 0.2799
vn 0.8176 0.5196 0.2480
vn 0.8531 -0.4531 0.2588
vn 0.8447 0.4699 0.2562
vn 0.7435 -0.6296 0.2255
vn 0.8753 0.4043 0.2655
vn 0.6088 -0.7715 0.1847
vn 0.9069 0.3193 0.2751
vn 0.4528 -0.8810 0.1374
vn 0.9353 0.2112 0.2837
vn 0.2790 -0.9565 0.0846
vn 0.9541 0.0771 0.2894
vn 0.8066 0.4043 0.4312
vn 0.5611 -0.7715 0.2999
vn 0.8358 0.3193 0.4467
vn 0.4173 -0.8810 0.2230
vn 0.8620 0.2112 0.4608
vn 0.2571 -0.9565 0.1374
vn 0.8793 0.0771 0.4700
vn 0.7181 0.5806 0.3838
vn 0.0869 -0.9951 0.0464
vn 0.8789 -0.0833 0.4698
vn 0.7331 0.5559 0.3918
vn 0.8505 -0.2645 0.4546
vn 0.7535 0.5196 0.4028
vn 0.7862 -0.4531 0.4202
vn 0.7785 0.4699 0.4161
vn 0.6852 -0.6296 0.3662
vn 0.7703 -0.0833 0.6322
vn 0.6425 0.5559 0.5273
vn 0.7455 -0.2645 0.6118
vn 0.6604 0.5196 0.5420
vn 0.6891 -0.4531 0.5655
vn 0.6823 0.4699 0.5600
vn 0.6006 -0.6296 0.4929
vn 0.7070 0.4043 0.5802
vn 0.4918 -0.7715 0.4036
vn 0.7326 0.3193 0.6012
vn 0.3658 -0.8810 0.3002
vn 0.7556 0.2112 0.6201
vn 0.2254 -0.9565 0.1850
vn 0.7707 0.0771 0.6325
vn 0.6294 0.5806 0.5165
vn 0.0761 -0.9951 0.0625
vn 0.4036 -0.7715 0.4918
vn 0.6012 0.3193 0.7326
vn 0.3002 -0.8810 0.3658
vn 0.6201 0.2112 0.7556
vn 0.1850 -0.9565 0.2254
vn 0.6325 0.0771 0.7707
vn 0.5165 0.5806 0.6294
vn 0.0625 -0.9951 0.0761
vn 0.6322 -0.0833 0.7703
vn 0.5273 0.5559 0.6425
vn 0.6118 -0.2645 0.7455
vn 0.5420 0.5196 0.6604
vn 0.5655 -0.4531 0.6891
vn 0.5600 0.4699 0.6823
vn 0.4929 -0.6296 0.6006
vn 0.5802 0.4043 0.7070
vn 0.4546 -0.2645 0.8505
vn 0.4028 0.5196 0.7535
vn 0.4202 -0.4531 0.7862
vn 0.4161 0.4699 0.7785
vn 0.3662 -0.6296 0.6852
vn 0.4312 0.4043 0.8066
vn 0.2999 -0.7715 0.5611
vn 0.4467 0.3193 0.8358
vn 0.2230 -0.8810 0.4173
vn 0.4608 0.2112 0.8620
vn 0.1374 -0.9565 0.2571
vn 0.4700 0.0771 0.8793
vn 0.3838 0.5806 0.7181
vn 0.0464 -0.9951 0.0869
vn 0.4698 -0.0833 0.8789
vn 0.3918 0.5559 0.7331
vn 0.1374 -0.8810 0.4528
vn 0.2837 0.2112 0.9353
vn 0.0846 -0.9565 0.2790
vn 0.2894 0.0771 0.9541
vn 0.2363 0.5806 0.7791
vn 0.0286 -0.9951 0.0942
vn 0.2893 -0.0833 0.9536
vn 0.2413 0.5559 0.7954
vn 0.2799 -0.2645 0.9229
vn 0.2480 0.5196 0.8176
vn 0.2588 -0.4531 0.8531
vn 0.2562 0.4699 0.8447
vn 0.2255 -0.6296 0.7435
vn 0.2655 0.4043 0.8753
vn 0.1847 -0.7715 0.6088
vn 0.2751 0.3193 0.9069
vn 0.0837 0.5196 0.8503
vn 0.0874 -0.4531 0.8872
vn 0.0865 0.4699 0.8784
vn 0.0762 -0.6296 0.7732
vn 0.0897 0.4043 0.9102
vn 0.0624 -0.7715 0.6332
vn 0.0929 0.3193 0.9431
vn 0.0464 -0.8810 0.4709
vn 0.0958 0.2112 0.9727
vn 0.0286 -0.9565 0.2902
vn 0.0977 0.0771 0.9922
vn 0.0798 0.5806 0.8103
vn 0.0097 -0.9951 0.0980
vn 0.0977 -0.0833 0.9917
vn 0.0815 0.5559 0.8272
vn 0.0945 -0.2645 0.9597
vn -0.0958 0.2112 0.9727
vn -0.0286 -0.9565 0.2902
vn -0.0977 0.0771 0.9922
vn -0.0798 0.5806 0.8103
vn -0.0097 -0.9951 0.0980
vn -0.0977 -0.0833 0.9917
vn -0.0815 0.5559 0.8272
vn -0.0945 -0.2645 0.9597
vn -0.0837 0.5196 0.8503
vn -0.0874 -0.4531 0.8872
vn -0.0865 0.4699 0.8784
vn -0.0762 -0.6296 0.7732
vn -0.0897 0.4043 0.9102
vn -0.0624 -0.7715 0.6332
vn -0.0929 0.3193 0.9431
vn -0.0464 -0.8810 0.4709
vn -0.2588 -0.4531 0.8531
vn -0.2562 0.4699 0.8447
vn -0.2255 -0.6296 0.7435
vn -0.2655 0.4043 0.8753
vn -0.1847 -0.7715 0.6088
vn -0.2751 0.3193 0.9069
vn -0.1374 -0.8810 0.4528
vn -0.2837 0.2112 0.9353
vn -0.0846 -0.9565 0.2790
vn -0.2894 0.0771 0.9541
vn -0.2363 0.5806 0.7791
vn -0.0286 -0.9951 0.0942
vn -0.2893 -0.0833 0.9536
vn -0.2413 0.5559 0.7954
vn -0.2799 -0.2645 0.9229
vn -0.2480 0.5196 0.8176
vn -0.1374 -0.9565 0.2571
vn -0.4700 0.0771 0.8793
vn -0.3838 0.5806 0.7181
vn -0.0464 -0.9951 0.0869
vn -0.4698 -0.0833 0.8789
vn -0.3918 0.5559 0.7331
vn -0.4546 -0.2645 0.8505
vn -0.4028 0.5196 0.7535
vn -0.4202 -0.4531 0.7862
vn -0.4161 0.4699 0.7785
vn -0.3662 -0.6296 0.6852
vn -0.4312 0.4043 0.8066
vn -0.2999 -0.7715 0.5611
vn -0.4467 0.3193 0.8358
vn -0.2230 -0.8810 0.4173
vn -0.4608 0.2112 0.8620
vn -0.5600 0.4699 0.6823
vn -0.4929 -0.6296 0.6006
vn -0.5802 0.4043 0.7070
vn -0.4036 -0.7715 0.4918
vn -0.6012 0.3193 0.7326
vn -0.3002 -0.8810 0.3658
vn -0.6201 0.2112 0.7556
vn -0.1850 -0.9565 0.2254
vn -0.6325 0.0771 0.7707
vn -0.5165 0.5806 0.6294
vn -0.0625 -0.9951 0.0761
vn -0.6322 -0.0833 0.7703
vn -0.5273 0.5559 0.6425
vn -0.6118 -0.2645 0.7455
vn -0.5420 0.5196 0.6604
vn -0.5655 -0.4531 0.6891
vn -0.7707 0.0771 0.6325
vn -0.6294 0.5806 0.5165
vn -0.0761 -0.9951 0.0625
vn -0.7703 -0.0833 0.6322
vn -0.6425 0.5559 0.5273
vn -0.7455 -0.2645 0.6118
vn -0.6604 0.5196 0.5420
vn -0.6891 -0.4531 0.5655
vn -0.6823 0.4699 0.5600
vn -0.6006 -0.6296 0.4929
vn -0.7070 0.4043 0.5802
vn -0.4918 -0.7715 0.4036
vn -0.7326 0.3193 0.6012
vn -0.3658 -0.8810 0.3002
vn -0.7556 0.2112 0.6201
vn -0.2254 -0.9566 0.1850
vn -0.6852 -0.6296 0.3662
vn -0.8066 0.4043 0.4312
vn -0.5611 -0.7715 0.2999
vn -0.8358 0.3193 0.4467
vn -0.4173 -0.8810 0.2231
vn -0.8620 0.2112 0.4608
vn -0.2571 -0.9565 0.1374
vn -0.8793 0.0771 0.4700
vn -0.7181 0.5806 0.3838
vn -0.0869 -0.9951 0.0464
vn -0.8789 -0.0833 0.4698
vn -0.7331 0.5559 0.3918
vn -0.8505 -0.2645 0.4546
vn -0.7535 0.5196 0.4028
vn -0.7862 -0.4531 0.4202
vn -0.7785 0.4699 0.4161
vn -0.0942 -0.9951 0.0286
vn -0.9536 -0.0833 0.2893
vn -0.7954 0.5559 0.2413
vn -0.9229 -0.2645 0.2799
vn -0.8176 0.5196 0.2480
vn -0.8531 -0.4531 0.2588
vn -0.8447 0.4699 0.2562
vn -0.7435 -0.6296 0.2255
vn -0.8753 0.4043 0.2655
vn -0.6088 -0.7715 0.1847
vn -0.9069 0.3193 0.2751
vn -0.4528 -0.8810 0.1374
vn -0.9353 0.2112 0.2837
vn -0.2790 -0.9565 0.0846
vn -0.9541 0.0771 0.2894
vn -0.7791 0.5806 0.2363
vn -0.6332 -0.7715 0.0624
vn -0.9431 0.3193 0.0929
vn -0.4709 -0.8810 0.0464
vn -0.9727 0.2112 0.0958
vn -0.2902 -0.9565 0.0286
vn -0.9922 0.0771 0.0977
vn -0.8103 0.5806 0.0798
vn -0.0980 -0.9951 0.0097
vn -0.9917 -0.0833 0.0977
vn -0.8272 0.5559 0.0815
vn -0.9597 -0.2645 0.0945
vn -0.8503 0.5196 0.0837
vn -0.8872 -0.4531 0.0874
vn -0.8784 0.4699 0.0865
vn -0.7732 -0.6296 0.0762
vn -0.9102 0.4043 0.0896
vn -0.8272 0.5559 -0.0815
vn -0.9597 -0.2645 -0.0945
vn -0.8503 0.5196 -0.0837
vn -0.8872 -0.4531 -0.0874
vn -0.8784 0.4699 -0.0865
vn -0.7732 -0.6296 -0.0762
vn -0.9102 0.4043 -0.0897
vn -0.6332 -0.7715 -0.0624
vn -0.9431 0.3193 -0.0929
vn -0.4709 -0.8810 -0.0464
vn -0.9727 0.2112 -0.0958
vn -0.2902 -0.9565 -0.0286
vn -0.9922 0.0771 -0.0977
vn -0.8103 0.5806 -0.0798
vn -0.0980 -0.9951 -0.0097
vn -0.9917 -0.0833 -0.0977
vn -0.9069 0.3193 -0.2751
vn -0.4528 -0.8810 -0.1374
vn -0.9353 0.2112 -0.2837
vn -0.2790 -0.9565 -0.0846
vn -0.9541 0.0771 -0.2894
vn -0.7791 0.5806 -0.2363
vn -0.0942 -0.9951 -0.0286
vn -0.9536 -0.0833 -0.2893
vn -0.7954 0.5559 -0.2413
vn -0.9229 -0.2645 -0.2799
vn -0.8176 0.5196 -0.2480
vn -0.8531 -0.4531 -0.2588
vn -0.8447 0.4699 -0.2562
vn -0.7435 -0.6296 -0.2255
vn -0.8753 0.4043 -0.2655
vn -0.6088 -0.7715 -0.1847
vn -0.8505 -0.2645 -0.4546
vn -0.7535 0.5196 -0.4028
vn -0.7862 -0.4531 -0.4202
vn -0.7785 0.4699 -0.4161
vn -0.6852 -0.6296 -0.3662
vn -0.8066 0.4043 -0.4312
vn -0.5611 -0.7715 -0.2999
vn -0.8358 0.3193 -0.4467
vn -0.4173 -0.8810 -0.2231
vn -0.8620 0.2112 -0.4608
vn -0.2571 -0.9565 -0.1374
vn -0.8793 0.0771 -0.4700
vn -0.7181 0.5806 -0.3838
vn -0.0869 -0.9951 -0.0464
vn -0.8789 -0.0833 -0.4698
vn -0.7331 0.5559 -0.3918
vn -0.3658 -0.8810 -0.3002
vn -0.7556 0.2112 -0.6201
vn -0.2254 -0.9565 -0.1850
vn -0.7707 0.0771 -0.6325
vn -0.6294 0.5806 -0.5165
vn -0.0761 -0.9951 -0.0625
vn -0.7703 -0.0833 -0.6322
vn -0.6425 0.5559 -0.5273
vn -0.7455 -0.2645 -0.6118
vn -0.6604 0.5196 -0.5420
vn -0.6891 -0.4531 -0.5655
vn -0.6823 0.4699 -0.5600
vn -0.6006 -0.6296 -0.4929
vn -0.7070 0.4043 -0.5802
vn -0.4918 -0.7715 -0.4036
vn -0.7326 0.3193 -0.6012
vn -0.5420 0.5196 -0.6604
vn -0.5655 -0.4531 -0.6891
vn -0.5600 0.4699 -0.6823
vn -0.4929 -0.6296 -0.6006
vn -0.5802 0.4043 -0.7070
vn -0.4036 -0.7715 -0.4918
vn -0.6012 0.3193 -0.7326
vn -0.3002 -0.8810 -0.3658
vn -0.6201 0.2112 -0.7556
vn -0.1850 -0.9565 -0.2254
vn -0.6325 0.0771 -0.7707
vn -0.5165 0.5806 -0.6294
vn -0.0625 -0.9951 -0.0761
vn -0.6322 -0.0833 -0.7703
vn -0.5273 0.5559 -0.6425
vn -0.6118 -0.2645 -0.7455
vn -0.4608 0.2112 -0.8620
vn -0.1374 -0.9565 -0.2571
vn -0.4700 0.0771 -0.8793
vn -0.3838 0.5806 -0.7181
vn -0.0464 -0.9951 -0.0869
vn -0.4698 -0.0833 -0.8789
vn -0.3918 0.5559 -0.7331
vn -0.4546 -0.2645 -0.8505
vn -0.4028 0.5196 -0.7535
vn -0.4202 -0.4531 -0.7862
vn -0.4161 0.4699 -0.7785
vn -0.3662 -0.6296 -0.6852
vn -0.4312 0.4043 -0.8066
vn -0.2999 -0.7715 -0.5611
vn -0.4467 0.3193 -0.8358
vn -0.2230 -0.8810 -0.4173
vn -0.2588 -0.4531 -0.8531
vn -0.2562 0.4699 -0.8447
vn -0.2255 -0.6296 -0.7435
vn -0.2655 0.4043 -0.8753
vn -0.1847 -0.7715 -0.6088
vn -0.2751 0.3193 -0.9069
vn -0.1374 -0.8810 -0.4528
vn -0.2837 0.2112 -0.9353
vn -0.0846 -0.9565 -0.2790
vn -0.2894 0.0771 -0.9541
vn -0.2363 0.5806 -0.7791
vn -0.0286 -0.9951 -0.0942
vn -0.2893 -0.0833 -0.9536
vn -0.2413 0.5559 -0.7954
vn -0.2799 -0.2645 -0.9229
vn -0.2480 0.5196 -0.8176
vn -0.0286 -0.9565 -0.2902
vn -0.0977 0.0771 -0.9922
vn -0.0798 0.5806 -0.8103
vn -0.0097 -0.9951 -0.0980
vn -0.0977 -0.0833 -0.9917
vn -0.0815 0.5559 -0.8272
vn -0.0945 -0.2645 -0.9597
vn -0.0837 0.5196 -0.8503
vn -0.0874 -0.4531 -0.8872
vn -0.0865 0.4699 -0.8784
vn -0.0762 -0.6296 -0.7732
vn -0.0897 0.4043 -0.9102
vn -0.0624 -0.7715 -0.6332
vn -0.0929 0.3193 -0.9431
vn -0.0464 -0.8810 -0.4709
vn -0.0958 0.2112 -0.9727
vn 0.0762 -0.6296 -0.7732
vn 0.0896 0.4043 -0.9102
vn 0.2231 -0.8810 -0.4173
vn 0.2254 -0.9565 -0.1850
vn 0.7732 -0.6296 -0.0762
vn 0.9102 0.4043 -0.0896
vn 0.4173 -0.8810 0.2231
vn 0.2231 -0.8810 0.4173
vn -0.2231 -0.8810 0.4173
vn -0.2254 -0.9565 0.1850
vn -0.4173 -0.8810 0.2230
vn -0.9102 0.4043 0.0897
vn -0.9102 0.4043 -0.0896
vt 0.750000 0.125000
vt 0.718750 0.062500
vt 0.750000 0.062500
vt 0.750000 0.562500
vt 0.718750 0.500000
vt 0.750000 0.500000
vt 0.750000 0.937500
vt 0.734375 1.000000
vt 0.718750 0.937500
vt 0.734375 0.000000
vt 0.718750 0.437500
vt 0.750000 0.437500
vt 0.750000 0.875000
vt 0.718750 0.875000
vt 0.750000 0.375000
vt 0.718750 0.375000
vt 0.750000 0.812500
vt 0.718750 0.812500
vt 0.718750 0.312500
vt 0.750000 0.312500
vt 0.718750 0.750000
vt 0.750000 0.750000
vt 0.718750 0.250000
vt 0.750000 0.250000
vt 0.750000 0.687500
vt 0.718750 0.687500
vt 0.718750 0.187500
vt 0.750000 0.187500
vt 0.750000 0.625000
vt 0.718750 0.625000
vt 0.718750 0.125000
vt 0.718750 0.562500
vt 0.687500 0.687500
vt 0.687500 0.625000
vt 0.687500 0.187500
vt 0.687500 0.125000
vt 0.687500 0.562500
vt 0.687500 0.062500
vt 0.687500 0.500000
vt 0.703125 1.000000
vt 0.687500 0.937500
vt 0.703125 0.000000
vt 0.687500 0.437500
vt 0.687500 0.875000
vt 0.687500 0.375000
vt 0.687500 0.812500
vt 0.687500 0.312500
vt 0.687500 0.750000
vt 0.687500 0.250000
vt 0.656250 0.375000
vt 0.656250 0.812500
vt 0.656250 0.312500
vt 0.656250 0.750000
vt 0.656250 0.250000
vt 0.656250 0.687500
vt 0.656250 0.187500
vt 0.656250 0.625000
vt 0.656250 0.125000
vt 0.656250 0.562500
vt 0.656250 0.062500
vt 0.656250 0.500000
vt 0.671875 1.000000
vt 0.656250 0.937500
vt 0.671875 0.000000
vt 0.656250 0.437500
vt 0.656250 0.875000
vt 0.625000 0.125000
vt 0.625000 0.562500
vt 0.625000 0.062500
vt 0.625000 0.500000
vt 0.640625 1.000000
vt 0.625000 0.937500
vt 0.640625 0.000000
vt 0.625000 0.437500
vt 0.625000 0.875000
vt 0.625000 0.375000
vt 0.625000 0.812500
vt 0.625000 0.312500
vt 0.625000 0.750000
vt 0.625000 0.250000
vt 0.625000 0.687500
vt 0.625000 0.187500
vt 0.625000 0.625000
vt 0.593750 0.375000
vt 0.593750 0.312500
vt 0.593750 0.750000
vt 0.593750 0.250000
vt 0.593750 0.687500
vt 0.593750 0.187500
vt 0.593750 0.625000
vt 0.593750 0.125000
vt 0.593750 0.562500
vt 0.593750 0.062500
vt 0.593750 0.500000
vt 0.609375 1.000000
vt 0.593750 0.937500
vt 0.609375 0.000000
vt 0.593750 0.437500
vt 0.593750 0.875000
vt 0.593750 0.812500
vt 0.562500 0.125000
vt 0.562500 0.062500
vt 0.562500 0.562500
vt 0.562500 0.500000
vt 0.578125 1.000000
vt 0.562500 0.937500
vt 0.578125 0.000000
vt 0.562500 0.437500
vt 0.562500 0.875000
vt 0.562500 0.375000
vt 0.562500 0.812500
vt 0.562500 0.312500
vt 0.562500 0.750000
vt 0.562500 0.250000
vt 0.562500 0.687500
vt 0.562500 0.187500
vt 0.562500 0.625000
vt 0.531250 0.750000
vt 0.531250 0.250000
vt 0.531250 0.687500
vt 0.531250 0.187500
vt 0.531250 0.625000
vt 0.531250 0.125000
vt 0.531250 0.562500
vt 0.531250 0.062500
vt 0.531250 0.500000
vt 0.546875 1.000000
vt 0.531250 0.937500
vt 0.546875 0.000000
vt 0.531250 0.437500
vt 0.531250 0.875000
vt 0.531250 0.375000
vt 0.531250 0.812500
vt 0.531250 0.312500
vt 0.500000 0.500000
vt 0.515625 1.000000
vt 0.500000 0.937500
vt 0.515625 0.000000
vt 0.500000 0.062500
vt 0.500000 0.437500
vt 0.500000 0.875000
vt 0.500000 0.375000
vt 0.500000 0.812500
vt 0.500000 0.312500
vt 0.500000 0.750000
vt 0.500000 0.250000
vt 0.500000 0.687500
vt 0.500000 0.187500
vt 0.500000 0.625000
vt 0.500000 0.125000
vt 0.500000 0.562500
vt 0.468750 0.250000
vt 0.468750 0.750000
vt 0.468750 0.687500
vt 0.468750 0.187500
vt 0.468750 0.625000
vt 0.468750 0.125000
vt 0.468750 0.562500
vt 0.468750 0.062500
vt 0.468750 0.500000
vt 0.484375 1.000000
vt 0.468750 0.937500
vt 0.484375 0.000000
vt 0.468750 0.437500
vt 0.468750 0.875000
vt 0.468750 0.375000
vt 0.468750 0.812500
vt 0.468750 0.312500
vt 0.453125 1.000000
vt 0.437500 0.937500
vt 0.453125 0.000000
vt 0.437500 0.062500
vt 0.437500 0.437500
vt 0.437500 0.875000
vt 0.437500 0.375000
vt 0.437500 0.812500
vt 0.437500 0.312500
vt 0.437500 0.750000
vt 0.437500 0.250000
vt 0.437500 0.687500
vt 0.437500 0.187500
vt 0.437500 0.625000
vt 0.437500 0.125000
vt 0.437500 0.562500
vt 0.437500 0.500000
vt 0.406250 0.750000
vt 0.406250 0.687500
vt 0.406250 0.250000
vt 0.406250 0.187500
vt 0.406250 0.625000
vt 0.406250 0.125000
vt 0.406250 0.562500
vt 0.406250 0.062500
vt 0.406250 0.500000
vt 0.421875 1.000000
vt 0.406250 0.937500
vt 0.421875 0.000000
vt 0.406250 0.437500
vt 0.406250 0.875000
vt 0.406250 0.375000
vt 0.406250 0.812500
vt 0.406250 0.312500
vt 0.375000 0.437500
vt 0.375000 0.875000
vt 0.375000 0.375000
vt 0.375000 0.812500
vt 0.375000 0.312500
vt 0.375000 0.750000
vt 0.375000 0.250000
vt 0.375000 0.687500
vt 0.375000 0.187500
vt 0.375000 0.625000
vt 0.375000 0.125000
vt 0.375000 0.562500
vt 0.375000 0.062500
vt 0.375000 0.500000
vt 0.390625 1.000000
vt 0.375000 0.937500
vt 0.390625 0.000000
vt 0.343750 0.250000
vt 0.343750 0.187500
vt 0.343750 0.625000
vt 0.343750 0.125000
vt 0.343750 0.562500
vt 0.343750 0.062500
vt 0.343750 0.500000
vt 0.359375 1.000000
vt 0.343750 0.937500
vt 0.359375 0.000000
vt 0.343750 0.437500
vt 0.343750 0.875000
vt 0.343750 0.375000
vt 0.343750 0.812500
vt 0.343750 0.312500
vt 0.343750 0.750000
vt 0.343750 0.687500
vt 0.312500 0.375000
vt 0.312500 0.812500
vt 0.312500 0.312500
vt 0.312500 0.750000
vt 0.312500 0.250000
vt 0.312500 0.687500
vt 0.312500 0.187500
vt 0.312500 0.625000
vt 0.312500 0.125000
vt 0.312500 0.562500
vt 0.312500 0.062500
vt 0.312500 0.500000
vt 0.328125 1.000000
vt 0.312500 0.937500
vt 0.328125 0.000000
vt 0.312500 0.437500
vt 0.312500 0.875000
vt 0.281250 0.125000
vt 0.281250 0.625000
vt 0.281250 0.562500
vt 0.281250 0.062500
vt 0.281250 0.500000
vt 0.296875 1.000000
vt 0.281250 0.937500
vt 0.296875 0.000000
vt 0.281250 0.437500
vt 0.281250 0.875000
vt 0.281250 0.375000
vt 0.281250 0.812500
vt 0.281250 0.312500
vt 0.281250 0.750000
vt 0.281250 0.250000
vt 0.281250 0.687500
vt 0.281250 0.187500
vt 0.250000 0.812500
vt 0.250000 0.375000
vt 0.250000 0.312500
vt 0.250000 0.750000
vt 0.250000 0.250000
vt 0.250000 0.687500
vt 0.250000 0.187500
vt 0.250000 0.625000
vt 0.250000 0.125000
vt 0.250000 0.562500
vt 0.250000 0.062500
vt 0.250000 0.500000
vt 0.265625 1.000000
vt 0.250000 0.937500
vt 0.265625 0.000000
vt 0.250000 0.437500
vt 0.250000 0.875000
vt 0.218750 0.625000
vt 0.218750 0.562500
vt 0.218750 0.062500
vt 0.218750 0.500000
vt 0.234375 1.000000
vt 0.218750 0.937500
vt 0.234375 0.000000
vt 0.218750 0.437500
vt 0.218750 0.875000
vt 0.218750 0.375000
vt 0.218750 0.812500
vt 0.218750 0.312500
vt 0.218750 0.750000
vt 0.218750 0.250000
vt 0.218750 0.687500
vt 0.218750 0.187500
vt 0.218750 0.125000
vt 0.187500 0.375000
vt 0.187500 0.312500
vt 0.187500 0.750000
vt 0.187500 0.250000
vt 0.187500 0.687500
vt 0.187500 0.187500
vt 0.187500 0.625000
vt 0.187500 0.125000
vt 0.187500 0.562500
vt 0.187500 0.062500
vt 0.187500 0.500000
vt 0.203125 1.000000
vt 0.187500 0.937500
vt 0.203125 0.000000
vt 0.187500 0.437500
vt 0.187500 0.875000
vt 0.187500 0.812500
vt 0.156250 0.125000
vt 0.156250 0.062500
vt 0.156250 0.562500
vt 0.156250 0.500000
vt 0.171875 1.000000
vt 0.156250 0.937500
vt 0.171875 0.000000
vt 0.156250 0.437500
vt 0.156250 0.875000
vt 0.156250 0.375000
vt 0.156250 0.812500
vt 0.156250 0.312500
vt 0.156250 0.750000
vt 0.156250 0.250000
vt 0.156250 0.687500
vt 0.156250 0.187500
vt 0.156250 0.625000
vt 0.125000 0.750000
vt 0.125000 0.250000
vt 0.125000 0.687500
vt 0.125000 0.187500
vt 0.125000 0.625000
vt 0.125000 0.125000
vt 0.125000 0.562500
vt 0.125000 0.062500
vt 0.125000 0.500000
vt 0.140625 1.000000
vt 0.125000 0.937500
vt 0.140625 0.000000
vt 0.125000 0.437500
vt 0.125000 0.875000
vt 0.125000 0.375000
vt 0.125000 0.812500
vt 0.125000 0.312500
vt 0.093750 0.562500
vt 0.093750 0.500000
vt 0.109375 1.000000
vt 0.093750 0.937500
vt 0.109375 0.000000
vt 0.093750 0.062500
vt 0.093750 0.437500
vt 0.093750 0.875000
vt 0.093750 0.375000
vt 0.093750 0.812500
vt 0.093750 0.312500
vt 0.093750 0.750000
vt 0.093750 0.250000
vt 0.093750 0.687500
vt 0.093750 0.187500
vt 0.093750 0.625000
vt 0.093750 0.125000
vt 0.062500 0.250000
vt 0.062500 0.750000
vt 0.062500 0.687500
vt 0.062500 0.187500
vt 0.062500 0.625000
vt 0.062500 0.125000
vt 0.062500 0.562500
vt 0.062500 0.062500
vt 0.062500 0.500000
vt 0.078125 1.000000
vt 0.062500 0.937500
vt 0.078125 0.000000
vt 0.062500 0.437500
vt 0.062500 0.875000
vt 0.062500 0.375000
vt 0.062500 0.812500
vt 0.062500 0.312500
vt 0.046875 0.000000
vt 0.031250 0.062500
vt 0.031250 0.437500
vt 0.031250 0.875000
vt 0.031250 0.375000
vt 0.031250 0.812500
vt 0.031250 0.312500
vt 0.031250 0.750000
vt 0.031250 0.250000
vt 0.031250 0.687500
vt 0.031250 0.187500
vt 0.031250 0.625000
vt 0.031250 0.125000
vt 0.031250 0.562500
vt 0.031250 0.500000
vt 0.046875 1.000000
vt 0.031250 0.937500
vt 0.000000 0.250000
vt 0.000000 0.187500
vt 0.000000 0.625000
vt 0.000000 0.125000
vt 0.000000 0.562500
vt 0.000000 0.062500
vt 0.000000 0.500000
vt 0.015625 1.000000
vt 0.000000 0.937500
vt 0.015625 0.000000
vt 0.000000 0.437500
vt 0.000000 0.875000
vt 0.000000 0.375000
vt 0.000000 0.812500
vt 0.000000 0.312500
vt 0.000000 0.750000
vt 0.000000 0.687500
vt 1.000000 0.937500
vt 0.968750 0.875000
vt 1.000000 0.875000
vt 1.000000 0.437500
vt 0.968750 0.375000
vt 1.000000 0.375000
vt 0.968750 0.812500
vt 1.000000 0.812500
vt 1.000000 0.312500
vt 0.968750 0.312500
vt 0.968750 0.750000
vt 1.000000 0.750000
vt 0.968750 0.250000
vt 1.000000 0.250000
vt 0.968750 0.687500
vt 1.000000 0.687500
vt 1.000000 0.187500
vt 0.968750 0.187500
vt 0.968750 0.625000
vt 1.000000 0.625000
vt 0.968750 0.125000
vt 1.000000 0.125000
vt 1.000000 0.562500
vt 0.968750 0.562500
vt 0.968750 0.062500
vt 1.000000 0.062500
vt 1.000000 0.500000
vt 0.968750 0.500000
vt 0.984375 1.000000
vt 0.968750 0.937500
vt 0.984375 0.000000
vt 0.968750 0.437500
vt 0.937500 0.625000
vt 0.937500 0.125000
vt 0.937500 0.562500
vt 0.937500 0.062500
vt 0.937500 0.500000
vt 0.953125 1.000000
vt 0.937500 0.937500
vt 0.953125 0.000000
vt 0.937500 0.437500
vt 0.937500 0.875000
vt 0.937500 0.375000
vt 0.937500 0.812500
vt 0.937500 0.312500
vt 0.937500 0.750000
vt 0.937500 0.250000
vt 0.937500 0.687500
vt 0.937500 0.187500
vt 0.906250 0.375000
vt 0.906250 0.812500
vt 0.906250 0.312500
vt 0.906250 0.750000
vt 0.906250 0.250000
vt 0.906250 0.687500
vt 0.906250 0.187500
vt 0.906250 0.625000
vt 0.906250 0.125000
vt 0.906250 0.562500
vt 0.906250 0.062500
vt 0.906250 0.500000
vt 0.921875 1.000000
vt 0.906250 0.937500
vt 0.921875 0.000000
vt 0.906250 0.437500
vt 0.906250 0.875000
vt 0.875000 0.125000
vt 0.875000 0.625000
vt 0.875000 0.562500
vt 0.875000 0.062500
vt 0.875000 0.500000
vt 0.890625 1.000000
vt 0.875000 0.937500
vt 0.890625 0.000000
vt 0.875000 0.437500
vt 0.875000 0.875000
vt 0.875000 0.375000
vt 0.875000 0.812500
vt 0.875000 0.312500
vt 0.875000 0.750000
vt 0.875000 0.250000
vt 0.875000 0.687500
vt 0.875000 0.187500
vt 0.843750 0.875000
vt 0.843750 0.812500
vt 0.843750 0.375000
vt 0.843750 0.312500
vt 0.843750 0.750000
vt 0.843750 0.250000
vt 0.843750 0.687500
vt 0.843750 0.187500
vt 0.843750 0.625000
vt 0.843750 0.125000
vt 0.843750 0.562500
vt 0.843750 0.062500
vt 0.843750 0.500000
vt 0.859375 1.000000
vt 0.843750 0.937500
vt 0.859375 0.000000
vt 0.843750 0.437500
vt 0.812500 0.625000
vt 0.812500 0.562500
vt 0.812500 0.062500
vt 0.812500 0.500000
vt 0.828125 1.000000
vt 0.812500 0.937500
vt 0.828125 0.000000
vt 0.812500 0.437500
vt 0.812500 0.875000
vt 0.812500 0.375000
vt 0.812500 0.812500
vt 0.812500 0.312500
vt 0.812500 0.750000
vt 0.812500 0.250000
vt 0.812500 0.687500
vt 0.812500 0.187500
vt 0.812500 0.125000
vt 0.781250 0.375000
vt 0.781250 0.312500
vt 0.781250 0.750000
vt 0.781250 0.250000
vt 0.781250 0.687500
vt 0.781250 0.187500
vt 0.781250 0.625000
vt 0.781250 0.125000
vt 0.781250 0.562500
vt 0.781250 0.062500
vt 0.781250 0.500000
vt 0.796875 1.000000
vt 0.781250 0.937500
vt 0.796875 0.000000
vt 0.781250 0.437500
vt 0.781250 0.875000
vt 0.781250 0.812500
vt 0.765625 1.000000
vt 0.765625 0.000000
s 0
f 481/1/1 23/2/1 482/3/1
f 4/4/2 16/5/2 5/6/2
f 474/7/3 1/8/3 9/9/3
f 8/10/4 482/3/4 23/2/4
f 5/6/5 17/11/5 6/12/5
f 475/13/6 9/9/6 10/14/6
f 478/15/7 17/11/7 18/16/7
f 2/17/8 10/14/8 11/18/8
f 478/15/9 19/19/9 7/20/9
f 2/17/10 12/21/10 476/22/10
f 7/20/11 20/23/11 479/24/11
f 3/25/12 12/21/12 13/26/12
f 479/24/13 21/27/13 480/28/13
f 477/29/14 13/26/14 14/30/14
f 480/28/15 22/31/15 481/1/15
f 4/4/16 14/30/16 15/32/16
f 14/30/17 28/33/17 29/34/17
f 22/31/18 36/35/18 37/36/18
f 15/32/19 29/34/19 30/37/19
f 22/31/20 38/38/20 23/2/20
f 15/32/21 31/39/21 16/5/21
f 9/9/22 1/40/22 24/41/22
f 8/42/23 23/2/23 38/38/23
f 16/5/24 32/43/24 17/11/24
f 9/9/25 25/44/25 10/14/25
f 17/11/26 33/45/26 18/16/26
f 10/14/27 26/46/27 11/18/27
f 19/19/28 33/45/28 34/47/28
f 11/18/29 27/48/29 12/21/29
f 20/23/30 34/47/30 35/49/30
f 13/26/31 27/48/31 28/33/31
f 21/27/32 35/49/32 36/35/32
f 32/43/33 48/50/33 33/45/33
f 25/44/34 41/51/34 26/46/34
f 33/45/35 49/52/35 34/47/35
f 26/46/36 42/53/36 27/48/36
f 35/49/37 49/52/37 50/54/37
f 27/48/38 43/55/38 28/33/38
f 36/35/39 50/54/39 51/56/39
f 28/33/40 44/57/40 29/34/40
f 36/35/41 52/58/41 37/36/41
f 29/34/42 45/59/42 30/37/42
f 37/36/43 53/60/43 38/38/43
f 30/37/44 46/61/44 31/39/44
f 24/41/45 1/62/45 39/63/45
f 8/64/46 38/38/46 53/60/46
f 31/39/47 47/65/47 32/43/47
f 24/41/48 40/66/48 25/44/48
f 51/56/49 67/67/49 52/58/49
f 44/57/50 60/68/50 45/59/50
f 52/58/51 68/69/51 53/60/51
f 45/59/52 61/70/52 46/61/52
f 39/63/53 1/71/53 54/72/53
f 8/73/54 53/60/54 68/69/54
f 46/61/55 62/74/55 47/65/55
f 39/63/56 55/75/56 40/66/56
f 47/65/57 63/76/57 48/50/57
f 40/66/58 56/77/58 41/51/58
f 49/52/59 63/76/59 64/78/59
f 41/51/60 57/79/60 42/53/60
f 49/52/61 65/80/61 50/54/61
f 42/53/62 58/81/62 43/55/62
f 50/54/63 66/82/63 51/56/63
f 43/55/64 59/83/64 44/57/64
f 64/78/65 78/84/65 79/85/65
f 56/77/66 72/86/66 57/79/66
f 64/78/67 80/87/67 65/80/67
f 58/81/68 72/86/68 73/88/68
f 65/80/69 81/89/69 66/82/69
f 58/81/70 74/90/70 59/83/70
f 67/67/71 81/89/71 82/91/71
f 59/83/72 75/92/72 60/68/72
f 67/67/73 83/93/73 68/69/73
f 61/70/74 75/92/74 76/94/74
f 54/72/75 1/95/75 69/96/75
f 8/97/76 68/69/76 83/93/76
f 61/70/77 77/98/77 62/74/77
f 54/72/78 70/99/78 55/75/78
f 62/74/79 78/84/79 63/76/79
f 55/75/80 71/100/80 56/77/80
f 83/93/81 97/101/81 98/102/81
f 76/94/82 90/103/82 91/104/82
f 69/96/83 1/105/83 84/106/83
f 8/107/84 83/93/84 98/102/84
f 76/94/85 92/108/85 77/98/85
f 69/96/86 85/109/86 70/99/86
f 77/98/87 93/110/87 78/84/87
f 70/99/88 86/111/88 71/100/88
f 79/85/89 93/110/89 94/112/89
f 71/100/90 87/113/90 72/86/90
f 79/85/91 95/114/91 80/87/91
f 72/86/92 88/115/92 73/88/92
f 80/87/93 96/116/93 81/89/93
f 73/88/94 89/117/94 74/90/94
f 81/89/95 97/101/95 82/91/95
f 75/92/96 89/117/96 90/103/96
f 86/111/97 102/118/97 87/113/97
f 94/112/98 110/119/98 95/114/98
f 88/115/99 102/118/99 103/120/99
f 96/116/100 110/119/100 111/121/100
f 88/115/101 104/122/101 89/117/101
f 97/101/102 111/121/102 112/123/102
f 90/103/103 104/122/103 105/124/103
f 97/101/104 113/125/104 98/102/104
f 91/104/105 105/124/105 106/126/105
f 84/106/106 1/127/106 99/128/106
f 8/129/107 98/102/107 113/125/107
f 91/104/108 107/130/108 92/108/108
f 84/106/109 100/131/109 85/109/109
f 92/108/110 108/132/110 93/110/110
f 86/111/111 100/131/111 101/133/111
f 94/112/112 108/132/112 109/134/112
f 105/124/113 121/135/113 106/126/113
f 99/128/114 1/136/114 114/137/114
f 8/138/115 113/125/115 128/139/115
f 106/126/116 122/140/116 107/130/116
f 99/128/117 115/141/117 100/131/117
f 107/130/118 123/142/118 108/132/118
f 100/131/119 116/143/119 101/133/119
f 109/134/120 123/142/120 124/144/120
f 101/133/121 117/145/121 102/118/121
f 109/134/122 125/146/122 110/119/122
f 103/120/123 117/145/123 118/147/123
f 111/121/124 125/146/124 126/148/124
f 103/120/125 119/149/125 104/122/125
f 111/121/126 127/150/126 112/123/126
f 105/124/127 119/149/127 120/151/127
f 112/123/128 128/139/128 113/125/128
f 124/144/129 140/152/129 125/146/129
f 118/147/130 132/153/130 133/154/130
f 126/148/131 140/152/131 141/155/131
f 118/147/132 134/156/132 119/149/132
f 126/148/133 142/157/133 127/150/133
f 119/149/134 135/158/134 120/151/134
f 127/150/135 143/159/135 128/139/135
f 121/135/136 135/158/136 136/160/136
f 114/137/137 1/161/137 129/162/137
f 8/163/138 128/139/138 143/159/138
f 121/135/139 137/164/139 122/140/139
f 114/137/140 130/165/140 115/141/140
f 122/140/141 138/166/141 123/142/141
f 115/141/142 131/167/142 116/143/142
f 124/144/143 138/166/143 139/168/143
f 117/145/144 131/167/144 132/153/144
f 129/162/145 1/169/145 144/170/145
f 8/171/146 143/159/146 158/172/146
f 136/160/147 152/173/147 137/164/147
f 129/162/148 145/174/148 130/165/148
f 137/164/149 153/175/149 138/166/149
f 130/165/150 146/176/150 131/167/150
f 139/168/151 153/175/151 154/177/151
f 131/167/152 147/178/152 132/153/152
f 139/168/153 155/179/153 140/152/153
f 133/154/154 147/178/154 148/180/154
f 141/155/155 155/179/155 156/181/155
f 133/154/156 149/182/156 134/156/156
f 141/155/157 157/183/157 142/157/157
f 135/158/158 149/182/158 150/184/158
f 143/159/159 157/183/159 158/172/159
f 135/158/160 151/185/160 136/160/160
f 148/180/161 162/186/161 163/187/161
f 156/181/162 170/188/162 171/189/162
f 148/180/163 164/190/163 149/182/163
f 156/181/164 172/191/164 157/183/164
f 150/184/165 164/190/165 165/192/165
f 157/183/166 173/193/166 158/172/166
f 151/185/167 165/192/167 166/194/167
f 144/170/168 1/195/168 159/196/168
f 8/197/169 158/172/169 173/193/169
f 151/185/170 167/198/170 152/173/170
f 144/170/171 160/199/171 145/174/171
f 152/173/172 168/200/172 153/175/172
f 145/174/173 161/201/173 146/176/173
f 154/177/174 168/200/174 169/202/174
f 146/176/175 162/186/175 147/178/175
f 154/177/176 170/188/176 155/179/176
f 166/194/177 182/203/177 167/198/177
f 159/196/178 175/204/178 160/199/178
f 167/198/179 183/205/179 168/200/179
f 160/199/180 176/206/180 161/201/180
f 169/202/181 183/205/181 184/207/181
f 161/201/182 177/208/182 162/186/182
f 169/202/183 185/209/183 170/188/183
f 162/186/184 178/210/184 163/187/184
f 170/188/185 186/211/185 171/189/185
f 163/187/186 179/212/186 164/190/186
f 172/191/187 186/211/187 187/213/187
f 165/192/188 179/212/188 180/214/188
f 173/193/189 187/213/189 188/215/189
f 166/194/190 180/214/190 181/216/190
f 159/196/191 1/217/191 174/218/191
f 8/219/192 173/193/192 188/215/192
f 186/211/193 200/220/193 201/221/193
f 178/210/194 194/222/194 179/212/194
f 186/211/195 202/223/195 187/213/195
f 180/214/196 194/222/196 195/224/196
f 187/213/197 203/225/197 188/215/197
f 181/216/198 195/224/198 196/226/198
f 174/218/199 1/227/199 189/228/199
f 8/229/200 188/215/200 203/225/200
f 181/216/201 197/230/201 182/203/201
f 174/218/202 190/231/202 175/204/202
f 182/203/203 198/232/203 183/205/203
f 175/204/204 191/233/204 176/206/204
f 184/207/205 198/232/205 199/234/205
f 176/206/206 192/235/206 177/208/206
f 184/207/207 200/220/207 185/209/207
f 178/210/208 192/235/208 193/236/208
f 197/230/209 213/237/209 198/232/209
f 190/231/210 206/238/210 191/233/210
f 199/234/211 213/237/211 214/239/211
f 191/233/212 207/240/212 192/235/212
f 199/234/213 215/241/213 200/220/213
f 193/236/214 207/240/214 208/242/214
f 201/221/215 215/241/215 216/243/215
f 193/236/216 209/244/216 194/222/216
f 201/221/217 217/245/217 202/223/217
f 195/224/218 209/244/218 210/246/218
f 202/223/219 218/247/219 203/225/219
f 196/226/220 210/246/220 211/248/220
f 189/228/221 1/249/221 204/250/221
f 8/251/222 203/225/222 218/247/222
f 196/226/223 212/252/223 197/230/223
f 190/231/224 204/250/224 205/253/224
f 216/243/225 232/254/225 217/245/225
f 210/246/226 224/255/226 225/256/226
f 217/245/227 233/257/227 218/247/227
f 211/248/228 225/256/228 226/258/228
f 204/250/229 1/259/229 219/260/229
f 8/261/230 218/247/230 233/257/230
f 211/248/231 227/262/231 212/252/231
f 204/250/232 220/263/232 205/253/232
f 212/252/233 228/264/233 213/237/233
f 205/253/234 221/265/234 206/238/234
f 214/239/235 228/264/235 229/266/235
f 206/238/236 222/267/236 207/240/236
f 214/239/237 230/268/237 215/241/237
f 208/242/238 222/267/238 223/269/238
f 216/243/239 230/268/239 231/270/239
f 208/242/240 224/255/240 209/244/240
f 220/263/241 236/271/241 221/265/241
f 229/266/242 243/272/242 244/273/242
f 221/265/243 237/274/243 222/267/243
f 229/266/244 245/275/244 230/268/244
f 222/267/245 238/276/245 223/269/245
f 231/270/246 245/275/246 246/277/246
f 223/269/247 239/278/247 224/255/247
f 231/270/248 247/279/248 232/254/248
f 225/256/249 239/278/249 240/280/249
f 233/257/250 247/279/250 248/281/250
f 226/258/251 240/280/251 241/282/251
f 219/260/252 1/283/252 234/284/252
f 8/285/253 233/257/253 248/281/253
f 226/258/254 242/286/254 227/262/254
f 220/263/255 234/284/255 235/287/255
f 227/262/256 243/272/256 228/264/256
f 240/280/257 254/288/257 255/289/257
f 247/279/258 263/290/258 248/281/258
f 241/282/259 255/289/259 256/291/259
f 234/284/260 1/292/260 249/293/260
f 8/294/261 248/281/261 263/290/261
f 241/282/262 257/295/262 242/286/262
f 235/287/263 249/293/263 250/296/263
f 242/286/264 258/297/264 243/272/264
f 236/271/265 250/296/265 251/298/265
f 244/273/266 258/297/266 259/299/266
f 236/271/267 252/300/267 237/274/267
f 244/273/268 260/301/268 245/275/268
f 238/276/269 252/300/269 253/302/269
f 246/277/270 260/301/270 261/303/270
f 238/276/271 254/288/271 239/278/271
f 246/277/272 262/304/272 247/279/272
f 259/299/273 273/305/273 274/306/273
f 251/298/274 267/307/274 252/300/274
f 259/299/275 275/308/275 260/301/275
f 253/302/276 267/307/276 268/309/276
f 261/303/277 275/308/277 276/310/277
f 253/302/278 269/311/278 254/288/278
f 261/303/279 277/312/279 262/304/279
f 255/289/280 269/311/280 270/313/280
f 262/304/281 278/314/281 263/290/281
f 256/291/282 270/313/282 271/315/282
f 249/293/283 1/316/283 264/317/283
f 8/318/284 263/290/284 278/314/284
f 256/291/285 272/319/285 257/295/285
f 249/293/286 265/320/286 250/296/286
f 257/295/287 273/305/287 258/297/287
f 250/296/288 266/321/288 251/298/288
f 278/314/289 292/322/289 293/323/289
f 271/315/290 285/324/290 286/325/290
f 264/317/291 1/326/291 279/327/291
f 8/328/292 278/314/292 293/323/292
f 271/315/293 287/329/293 272/319/293
f 264/317/294 280/330/294 265/320/294
f 272/319/295 288/331/295 273/305/295
f 266/321/296 280/330/296 281/332/296
f 274/306/297 288/331/297 289/333/297
f 266/321/298 282/334/298 267/307/298
f 274/306/299 290/335/299 275/308/299
f 268/309/300 282/334/300 283/336/300
f 276/310/301 290/335/301 291/337/301
f 268/309/302 284/338/302 269/311/302
f 276/310/303 292/322/303 277/312/303
f 270/313/304 284/338/304 285/324/304
f 281/332/305 297/339/305 282/334/305
f 289/333/306 305/340/306 290/335/306
f 283/336/307 297/339/307 298/341/307
f 291/337/308 305/340/308 306/342/308
f 283/336/309 299/343/309 284/338/309
f 291/337/310 307/344/310 292/322/310
f 285/324/311 299/343/311 300/345/311
f 293/323/312 307/344/312 308/346/312
f 286/325/313 300/345/313 301/347/313
f 279/327/314 1/348/314 294/349/314
f 8/350/315 293/323/315 308/346/315
f 286/325/316 302/351/316 287/329/316
f 279/327/317 295/352/317 280/330/317
f 287/329/318 303/353/318 288/331/318
f 281/332/319 295/352/319 296/354/319
f 289/333/320 303/353/320 304/355/320
f 301/347/321 315/356/321 316/357/321
f 294/349/322 1/358/322 309/359/322
f 8/360/323 308/346/323 323/361/323
f 301/347/324 317/362/324 302/351/324
f 294/349/325 310/363/325 295/352/325
f 302/351/326 318/364/326 303/353/326
f 295/352/327 311/365/327 296/354/327
f 304/355/328 318/364/328 319/366/328
f 296/354/329 312/367/329 297/339/329
f 304/355/330 320/368/330 305/340/330
f 298/341/331 312/367/331 313/369/331
f 306/342/332 320/368/332 321/370/332
f 298/341/333 314/371/333 299/343/333
f 306/342/334 322/372/334 307/344/334
f 300/345/335 314/371/335 315/356/335
f 307/344/336 323/361/336 308/346/336
f 319/366/337 335/373/337 320/368/337
f 313/369/338 327/374/338 328/375/338
f 321/370/339 335/373/339 336/376/339
f 313/369/340 329/377/340 314/371/340
f 321/370/341 337/378/341 322/372/341
f 315/356/342 329/377/342 330/379/342
f 322/372/343 338/380/343 323/361/343
f 316/357/344 330/379/344 331/381/344
f 309/359/345 1/382/345 324/383/345
f 8/384/346 323/361/346 338/380/346
f 316/357/347 332/385/347 317/362/347
f 309/359/348 325/386/348 310/363/348
f 317/362/349 333/387/349 318/364/349
f 310/363/350 326/388/350 311/365/350
f 319/366/351 333/387/351 334/389/351
f 311/365/352 327/374/352 312/367/352
f 8/390/353 338/380/353 353/391/353
f 331/381/354 347/392/354 332/385/354
f 324/383/355 340/393/355 325/386/355
f 332/385/356 348/394/356 333/387/356
f 325/386/357 341/395/357 326/388/357
f 334/389/358 348/394/358 349/396/358
f 326/388/359 342/397/359 327/374/359
f 334/389/360 350/398/360 335/373/360
f 327/374/361 343/399/361 328/375/361
f 336/376/362 350/398/362 351/400/362
f 328/375/363 344/401/363 329/377/363
f 336/376/364 352/402/364 337/378/364
f 330/379/365 344/401/365 345/403/365
f 337/378/366 353/391/366 338/380/366
f 331/381/367 345/403/367 346/404/367
f 324/383/368 1/405/368 339/406/368
f 351/400/369 365/407/369 366/408/369
f 343/399/370 359/409/370 344/401/370
f 351/400/371 367/410/371 352/402/371
f 345/403/372 359/409/372 360/411/372
f 352/402/373 368/412/373 353/391/373
f 346/404/374 360/411/374 361/413/374
f 339/406/375 1/414/375 354/415/375
f 8/416/376 353/391/376 368/412/376
f 346/404/377 362/417/377 347/392/377
f 339/406/378 355/418/378 340/393/378
f 347/392/379 363/419/379 348/394/379
f 340/393/380 356/420/380 341/395/380
f 349/396/381 363/419/381 364/421/381
f 341/395/382 357/422/382 342/397/382
f 349/396/383 365/407/383 350/398/383
f 343/399/384 357/422/384 358/423/384
f 354/424/385 370/425/385 355/426/385
f 362/427/386 378/428/386 363/429/386
f 355/426/387 371/430/387 356/431/387
f 364/432/388 378/428/388 379/433/388
f 356/431/389 372/434/389 357/435/389
f 364/432/390 380/436/390 365/437/390
f 357/435/391 373/438/391 358/439/391
f 366/440/392 380/436/392 381/441/392
f 358/439/393 374/442/393 359/443/393
f 366/440/394 382/444/394 367/445/394
f 360/446/395 374/442/395 375/447/395
f 367/445/396 383/448/396 368/449/396
f 361/450/397 375/447/397 376/451/397
f 354/424/398 1/452/398 369/453/398
f 8/454/399 368/449/399 383/448/399
f 361/450/400 377/455/400 362/427/400
f 373/438/401 389/456/401 374/442/401
f 381/441/402 397/457/402 382/444/402
f 375/447/403 389/456/403 390/458/403
f 382/444/404 398/459/404 383/448/404
f 376/451/405 390/458/405 391/460/405
f 369/453/406 1/461/406 384/462/406
f 8/463/407 383/448/407 398/459/407
f 376/451/408 392/464/408 377/455/408
f 370/425/409 384/462/409 385/465/409
f 377/455/410 393/466/410 378/428/410
f 370/425/411 386/467/411 371/430/411
f 379/433/412 393/466/412 394/468/412
f 371/430/413 387/469/413 372/434/413
f 379/433/414 395/470/414 380/436/414
f 373/438/415 387/469/415 388/471/415
f 381/441/416 395/470/416 396/472/416
f 392/464/417 408/473/417 393/466/417
f 385/465/418 401/474/418 386/467/418
f 394/468/419 408/473/419 409/475/419
f 386/467/420 402/476/420 387/469/420
f 394/468/421 410/477/421 395/470/421
f 388/471/422 402/476/422 403/478/422
f 396/472/423 410/477/423 411/479/423
f 388/471/424 404/480/424 389/456/424
f 397/457/425 411/479/425 412/481/425
f 390/458/426 404/480/426 405/482/426
f 397/457/427 413/483/427 398/459/427
f 391/460/428 405/482/428 406/484/428
f 384/462/429 1/485/429 399/486/429
f 8/487/430 398/459/430 413/483/430
f 391/460/431 407/488/431 392/464/431
f 384/462/432 400/489/432 385/465/432
f 411/479/433 427/490/433 412/481/433
f 405/482/434 419/491/434 420/492/434
f 412/481/435 428/493/435 413/483/435
f 406/484/436 420/492/436 421/494/436
f 399/486/437 1/495/437 414/496/437
f 8/497/438 413/483/438 428/493/438
f 406/484/439 422/498/439 407/488/439
f 399/486/440 415/499/440 400/489/440
f 407/488/441 423/500/441 408/473/441
f 400/489/442 416/501/442 401/474/442
f 409/475/443 423/500/443 424/502/443
f 401/474/444 417/503/444 402/476/444
f 409/475/445 425/504/445 410/477/445
f 403/478/446 417/503/446 418/505/446
f 411/479/447 425/504/447 426/506/447
f 403/478/448 419/491/448 404/480/448
f 416/501/449 430/507/449 431/508/449
f 424/502/450 438/509/450 439/510/450
f 416/501/451 432/511/451 417/503/451
f 424/502/452 440/512/452 425/504/452
f 418/505/453 432/511/453 433/513/453
f 426/506/454 440/512/454 441/514/454
f 418/505/455 434/515/455 419/491/455
f 426/506/456 442/516/456 427/490/456
f 420/492/457 434/515/457 435/517/457
f 427/490/458 443/518/458 428/493/458
f 421/494/459 435/517/459 436/519/459
f 414/496/460 1/520/460 429/521/460
f 8/522/461 428/493/461 443/518/461
f 421/494/462 437/523/462 422/498/462
f 414/496/463 430/507/463 415/499/463
f 422/498/464 438/509/464 423/500/464
f 435/517/465 449/524/465 450/525/465
f 442/516/466 458/526/466 443/518/466
f 436/519/467 450/525/467 451/527/467
f 429/521/468 1/528/468 444/529/468
f 8/530/469 443/518/469 458/526/469
f 436/519/470 452/531/470 437/523/470
f 429/521/471 445/532/471 430/507/471
f 437/523/472 453/533/472 438/509/472
f 431/508/473 445/532/473 446/534/473
f 439/510/474 453/533/474 454/535/474
f 431/508/475 447/536/475 432/511/475
f 439/510/476 455/537/476 440/512/476
f 433/513/477 447/536/477 448/538/477
f 441/514/478 455/537/478 456/539/478
f 433/513/479 449/524/479 434/515/479
f 441/514/480 457/540/480 442/516/480
f 454/535/481 468/541/481 469/542/481
f 446/534/482 462/543/482 447/536/482
f 454/535/483 470/544/483 455/537/483
f 448/538/484 462/543/484 463/545/484
f 456/539/485 470/544/485 471/546/485
f 448/538/486 464/547/486 449/524/486
f 456/539/487 472/548/487 457/540/487
f 450/525/488 464/547/488 465/549/488
f 458/526/489 472/548/489 473/550/489
f 451/527/490 465/549/490 466/551/490
f 444/529/491 1/552/491 459/553/491
f 8/554/492 458/526/492 473/550/492
f 451/527/493 467/555/493 452/531/493
f 444/529/494 460/556/494 445/532/494
f 452/531/495 468/541/495 453/533/495
f 445/532/496 461/557/496 446/534/496
f 472/548/497 482/3/497 473/550/497
f 466/551/498 4/4/498 5/6/498
f 459/553/499 1/558/499 474/7/499
f 8/559/500 473/550/500 482/3/500
f 466/551/501 6/12/501 467/555/501
f 459/553/502 475/13/502 460/556/502
f 467/555/503 478/15/503 468/541/503
f 461/557/504 475/13/504 2/17/504
f 469/542/505 478/15/505 7/20/505
f 462/543/506 2/17/506 476/22/506
f 469/542/507 479/24/507 470/544/507
f 463/545/508 476/22/508 3/25/508
f 471/546/509 479/24/509 480/28/509
f 464/547/510 3/25/510 477/29/510
f 471/546/511 481/1/511 472/548/511
f 465/549/512 477/29/512 4/4/512
f 481/1/1 22/31/1 23/2/1
f 4/4/2 15/32/2 16/5/2
f 5/6/5 16/5/5 17/11/5
f 475/13/6 474/7/6 9/9/6
f 478/15/7 6/12/7 17/11/7
f 2/17/8 475/13/8 10/14/8
f 478/15/9 18/16/9 19/19/9
f 2/17/10 11/18/10 12/21/10
f 7/20/513 19/19/513 20/23/513
f 3/25/514 476/22/514 12/21/514
f 479/24/13 20/23/13 21/27/13
f 477/29/14 3/25/14 13/26/14
f 480/28/15 21/27/15 22/31/15
f 4/4/16 477/29/16 14/30/16
f 14/30/17 13/26/17 28/33/17
f 22/31/18 21/27/18 36/35/18
f 15/32/19 14/30/19 29/34/19
f 22/31/20 37/36/20 38/38/20
f 15/32/21 30/37/21 31/39/21
f 16/5/24 31/39/24 32/43/24
f 9/9/25 24/41/25 25/44/25
f 17/11/26 32/43/26 33/45/26
f 10/14/27 25/44/27 26/46/27
f 19/19/28 18/16/28 33/45/28
f 11/18/29 26/46/29 27/48/29
f 20/23/30 19/19/30 34/47/30
f 13/26/31 12/21/31 27/48/31
f 21/27/32 20/23/32 35/49/32
f 32/43/33 47/65/33 48/50/33
f 25/44/34 40/66/34 41/51/34
f 33/45/35 48/50/35 49/52/35
f 26/46/36 41/51/36 42/53/36
f 35/49/37 34/47/37 49/52/37
f 27/48/38 42/53/38 43/55/38
f 36/35/39 35/49/39 50/54/39
f 28/33/40 43/55/40 44/57/40
f 36/35/515 51/56/515 52/58/515
f 29/34/42 44/57/42 45/59/42
f 37/36/43 52/58/43 53/60/43
f 30/37/44 45/59/44 46/61/44
f 31/39/47 46/61/47 47/65/47
f 24/41/48 39/63/48 40/66/48
f 51/56/49 66/82/49 67/67/49
f 44/57/50 59/83/50 60/68/50
f 52/58/51 67/67/51 68/69/51
f 45/59/52 60/68/52 61/70/52
f 46/61/55 61/70/55 62/74/55
f 39/63/56 54/72/56 55/75/56
f 47/65/57 62/74/57 63/76/57
f 40/66/58 55/75/58 56/77/58
f 49/52/59 48/50/59 63/76/59
f 41/51/60 56/77/60 57/79/60
f 49/52/61 64/78/61 65/80/61
f 42/53/62 57/79/62 58/81/62
f 50/54/63 65/80/63 66/82/63
f 43/55/64 58/81/64 59/83/64
f 64/78/65 63/76/65 78/84/65
f 56/77/66 71/100/66 72/86/66
f 64/78/67 79/85/67 80/87/67
f 58/81/68 57/79/68 72/86/68
f 65/80/69 80/87/69 81/89/69
f 58/81/70 73/88/70 74/90/70
f 67/67/71 66/82/71 81/89/71
f 59/83/72 74/90/72 75/92/72
f 67/67/516 82/91/516 83/93/516
f 61/70/74 60/68/74 75/92/74
f 61/70/77 76/94/77 77/98/77
f 54/72/78 69/96/78 70/99/78
f 62/74/79 77/98/79 78/84/79
f 55/75/80 70/99/80 71/100/80
f 83/93/81 82/91/81 97/101/81
f 76/94/82 75/92/82 90/103/82
f 76/94/85 91/104/85 92/108/85
f 69/96/86 84/106/86 85/109/86
f 77/98/87 92/108/87 93/110/87
f 70/99/88 85/109/88 86/111/88
f 79/85/89 78/84/89 93/110/89
f 71/100/90 86/111/90 87/113/90
f 79/85/91 94/112/91 95/114/91
f 72/86/92 87/113/92 88/115/92
f 80/87/93 95/114/93 96/116/93
f 73/88/94 88/115/94 89/117/94
f 81/89/95 96/116/95 97/101/95
f 75/92/96 74/90/96 89/117/96
f 86/111/97 101/133/97 102/118/97
f 94/112/98 109/134/98 110/119/98
f 88/115/99 87/113/99 102/118/99
f 96/116/100 95/114/100 110/119/100
f 88/115/101 103/120/101 104/122/101
f 97/101/102 96/116/102 111/121/102
f 90/103/103 89/117/103 104/122/103
f 97/101/104 112/123/104 113/125/104
f 91/104/105 90/103/105 105/124/105
f 91/104/108 106/126/108 107/130/108
f 84/106/109 99/128/109 100/131/109
f 92/108/110 107/130/110 108/132/110
f 86/111/111 85/109/111 100/131/111
f 94/112/112 93/110/112 108/132/112
f 105/124/113 120/151/113 121/135/113
f 106/126/116 121/135/116 122/140/116
f 99/128/117 114/137/117 115/141/117
f 107/130/118 122/140/118 123/142/118
f 100/131/119 115/141/119 116/143/119
f 109/134/120 108/132/120 123/142/120
f 101/133/121 116/143/121 117/145/121
f 109/134/517 124/144/517 125/146/517
f 103/120/518 102/118/518 117/145/518
f 111/121/124 110/119/124 125/146/124
f 103/120/125 118/147/125 119/149/125
f 111/121/126 126/148/126 127/150/126
f 105/124/127 104/122/127 119/149/127
f 112/123/128 127/150/128 128/139/128
f 124/144/129 139/168/129 140/152/129
f 118/147/130 117/145/130 132/153/130
f 126/148/131 125/146/131 140/152/131
f 118/147/132 133/154/132 134/156/132
f 126/148/133 141/155/133 142/157/133
f 119/149/134 134/156/134 135/158/134
f 127/150/135 142/157/135 143/159/135
f 121/135/136 120/151/136 135/158/136
f 121/135/139 136/160/139 137/164/139
f 114/137/140 129/162/140 130/165/140
f 122/140/141 137/164/141 138/166/141
f 115/141/142 130/165/142 131/167/142
f 124/144/143 123/142/143 138/166/143
f 117/145/144 116/143/144 131/167/144
f 136/160/147 151/185/147 152/173/147
f 129/162/148 144/170/148 145/174/148
f 137/164/149 152/173/149 153/175/149
f 130/165/150 145/174/150 146/176/150
f 139/168/151 138/166/151 153/175/151
f 131/167/152 146/176/152 147/178/152
f 139/168/153 154/177/153 155/179/153
f 133/154/154 132/153/154 147/178/154
f 141/155/155 140/152/155 155/179/155
f 133/154/156 148/180/156 149/182/156
f 141/155/157 156/181/157 157/183/157
f 135/158/158 134/156/158 149/182/158
f 143/159/159 142/157/159 157/183/159
f 135/158/160 150/184/160 151/185/160
f 148/180/161 147/178/161 162/186/161
f 156/181/162 155/179/162 170/188/162
f 148/180/163 163/187/163 164/190/163
f 156/181/519 171/189/519 172/191/519
f 150/184/165 149/182/165 164/190/165
f 157/183/166 172/191/166 173/193/166
f 151/185/167 150/184/167 165/192/167
f 151/185/170 166/194/170 167/198/170
f 144/170/171 159/196/171 160/199/171
f 152/173/172 167/198/172 168/200/172
f 145/174/173 160/199/173 161/201/173
f 154/177/174 153/175/174 168/200/174
f 146/176/175 161/201/175 162/186/175
f 154/177/176 169/202/176 170/188/176
f 166/194/177 181/216/177 182/203/177
f 159/196/178 174/218/178 175/204/178
f 167/198/179 182/203/179 183/205/179
f 160/199/180 175/204/180 176/206/180
f 169/202/181 168/200/181 183/205/181
f 161/201/182 176/206/182 177/208/182
f 169/202/183 184/207/183 185/209/183
f 162/186/184 177/208/184 178/210/184
f 170/188/185 185/209/185 186/211/185
f 163/187/186 178/210/186 179/212/186
f 172/191/187 171/189/187 186/211/187
f 165/192/188 164/190/188 179/212/188
f 173/193/189 172/191/189 187/213/189
f 166/194/190 165/192/190 180/214/190
f 186/211/193 185/209/193 200/220/193
f 178/210/194 193/236/194 194/222/194
f 186/211/195 201/221/195 202/223/195
f 180/214/196 179/212/196 194/222/196
f 187/213/197 202/223/197 203/225/197
f 181/216/198 180/214/198 195/224/198
f 181/216/201 196/226/201 197/230/201
f 174/218/202 189/228/202 190/231/202
f 182/203/203 197/230/203 198/232/203
f 175/204/204 190/231/204 191/233/204
f 184/207/205 183/205/205 198/232/205
f 176/206/206 191/233/206 192/235/206
f 184/207/207 199/234/207 200/220/207
f 178/210/208 177/208/208 192/235/208
f 197/230/209 212/252/209 213/237/209
f 190/231/210 205/253/210 206/238/210
f 199/234/211 198/232/211 213/237/211
f 191/233/212 206/238/212 207/240/212
f 199/234/213 214/239/213 215/241/213
f 193/236/214 192/235/214 207/240/214
f 201/221/215 200/220/215 215/241/215
f 193/236/216 208/242/216 209/244/216
f 201/221/520 216/243/520 217/245/520
f 195/224/218 194/222/218 209/244/218
f 202/223/219 217/245/219 218/247/219
f 196/226/220 195/224/220 210/246/220
f 196/226/223 211/248/223 212/252/223
f 190/231/224 189/228/224 204/250/224
f 216/243/225 231/270/225 232/254/225
f 210/246/226 209/244/226 224/255/226
f 217/245/227 232/254/227 233/257/227
f 211/248/228 210/246/228 225/256/228
f 211/248/231 226/258/231 227/262/231
f 204/250/232 219/260/232 220/263/232
f 212/252/233 227/262/233 228/264/233
f 205/253/234 220/263/234 221/265/234
f 214/239/235 213/237/235 228/264/235
f 206/238/236 221/265/236 222/267/236
f 214/239/237 229/266/237 230/268/237
f 208/242/238 207/240/238 222/267/238
f 216/243/239 215/241/239 230/268/239
f 208/242/240 223/269/240 224/255/240
f 220/263/241 235/287/241 236/271/241
f 229/266/242 228/264/242 243/272/242
f 221/265/243 236/271/243 237/274/243
f 229/266/244 244/273/244 245/275/244
f 222/267/245 237/274/245 238/276/245
f 231/270/246 230/268/246 245/275/246
f 223/269/247 238/276/247 239/278/247
f 231/270/248 246/277/248 247/279/248
f 225/256/249 224/255/249 239/278/249
f 233/257/250 232/254/250 247/279/250
f 226/258/251 225/256/251 240/280/251
f 226/258/254 241/282/254 242/286/254
f 220/263/255 219/260/255 234/284/255
f 227/262/256 242/286/256 243/272/256
f 240/280/257 239/278/257 254/288/257
f 247/279/258 262/304/258 263/290/258
f 241/282/259 240/280/259 255/289/259
f 241/282/262 256/291/262 257/295/262
f 235/287/263 234/284/263 249/293/263
f 242/286/264 257/295/264 258/297/264
f 236/271/265 235/287/265 250/296/265
f 244/273/266 243/272/266 258/297/266
f 236/271/267 251/298/267 252/300/267
f 244/273/268 259/299/268 260/301/268
f 238/276/269 237/274/269 252/300/269
f 246/277/270 245/275/270 260/301/270
f 238/276/271 253/302/271 254/288/271
f 246/277/272 261/303/272 262/304/272
f 259/299/273 258/297/273 273/305/273
f 251/298/274 266/321/274 267/307/274
f 259/299/275 274/306/275 275/308/275
f 253/302/276 252/300/276 267/307/276
f 261/303/277 260/301/277 275/308/277
f 253/302/278 268/309/278 269/311/278
f 261/303/279 276/310/279 277/312/279
f 255/289/280 254/288/280 269/311/280
f 262/304/281 277/312/281 278/314/281
f 256/291/282 255/289/282 270/313/282
f 256/291/285 271/315/285 272/319/285
f 249/293/286 264/317/286 265/320/286
f 257/295/287 272/319/287 273/305/287
f 250/296/288 265/320/288 266/321/288
f 278/314/289 277/312/289 292/322/289
f 271/315/290 270/313/290 285/324/290
f 271/315/293 286/325/293 287/329/293
f 264/317/294 279/327/294 280/330/294
f 272/319/295 287/329/295 288/331/295
f 266/321/296 265/320/296 280/330/296
f 274/306/297 273/305/297 288/331/297
f 266/321/298 281/332/298 282/334/298
f 274/306/299 289/333/299 290/335/299
f 268/309/300 267/307/300 282/334/300
f 276/310/301 275/308/301 290/335/301
f 268/309/302 283/336/302 284/338/302
f 276/310/521 291/337/521 292/322/521
f 270/313/304 269/311/304 284/338/304
f 281/332/305 296/354/305 297/339/305
f 289/333/306 304/355/306 305/340/306
f 283/336/307 282/334/307 297/339/307
f 291/337/308 290/335/308 305/340/308
f 283/336/309 298/341/309 299/343/309
f 291/337/310 306/342/310 307/344/310
f 285/324/311 284/338/311 299/343/311
f 293/323/312 292/322/312 307/344/312
f 286/325/313 285/324/313 300/345/313
f 286/325/316 301/347/316 302/351/316
f 279/327/317 294/349/317 295/352/317
f 287/329/318 302/351/318 303/353/318
f 281/332/319 280/330/319 295/352/319
f 289/333/320 288/331/320 303/353/320
f 301/347/321 300/345/321 315/356/321
f 301/347/324 316/357/324 317/362/324
f 294/349/325 309/359/325 310/363/325
f 302/351/326 317/362/326 318/364/326
f 295/352/327 310/363/327 311/365/327
f 304/355/328 303/353/328 318/364/328
f 296/354/329 311/365/329 312/367/329
f 304/355/330 319/366/330 320/368/330
f 298/341/331 297/339/331 312/367/331
f 306/342/332 305/340/332 320/368/332
f 298/341/333 313/369/333 314/371/333
f 306/342/334 321/370/334 322/372/334
f 300/345/335 299/343/335 314/371/335
f 307/344/522 322/372/522 323/361/522
f 319/366/337 334/389/337 335/373/337
f 313/369/338 312/367/338 327/374/338
f 321/370/339 320/368/339 335/373/339
f 313/369/340 328/375/340 329/377/340
f 321/370/523 336/376/523 337/378/523
f 315/356/342 314/371/342 329/377/342
f 322/372/343 337/378/343 338/380/343
f 316/357/344 315/356/344 330/379/344
f 316/357/347 331/381/347 332/385/347
f 309/359/348 324/383/348 325/386/348
f 317/362/349 332/385/349 333/387/349
f 310/363/350 325/386/350 326/388/350
f 319/366/351 318/364/351 333/387/351
f 311/365/352 326/388/352 327/374/352
f 331/381/354 346/404/354 347/392/354
f 324/383/355 339/406/355 340/393/355
f 332/385/356 347/392/356 348/394/356
f 325/386/357 340/393/357 341/395/357
f 334/389/358 333/387/358 348/394/358
f 326/388/359 341/395/359 342/397/359
f 334/389/360 349/396/360 350/398/360
f 327/374/361 342/397/361 343/399/361
f 336/376/362 335/373/362 350/398/362
f 328/375/363 343/399/363 344/401/363
f 336/376/364 351/400/364 352/402/364
f 330/379/365 329/377/365 344/401/365
f 337/378/366 352/402/366 353/391/366
f 331/381/367 330/379/367 345/403/367
f 351/400/369 350/398/369 365/407/369
f 343/399/370 358/423/370 359/409/370
f 351/400/371 366/408/371 367/410/371
f 345/403/372 344/401/372 359/409/372
f 352/402/373 367/410/373 368/412/373
f 346/404/374 345/403/374 360/411/374
f 346/404/377 361/413/377 362/417/377
f 339/406/378 354/415/378 355/418/378
f 347/392/379 362/417/379 363/419/379
f 340/393/380 355/418/380 356/420/380
f 349/396/381 348/394/381 363/419/381
f 341/395/382 356/420/382 357/422/382
f 349/396/383 364/421/383 365/407/383
f 343/399/524 342/397/524 357/422/524
f 354/424/385 369/453/385 370/425/385
f 362/427/386 377/455/386 378/428/386
f 355/426/387 370/425/387 371/430/387
f 364/432/388 363/429/388 378/428/388
f 356/431/389 371/430/389 372/434/389
f 364/432/390 379/433/390 380/436/390
f 357/435/525 372/434/525 373/438/525
f 366/440/392 365/437/392 380/436/392
f 358/439/393 373/438/393 374/442/393
f 366/440/394 381/441/394 382/444/394
f 360/446/395 359/443/395 374/442/395
f 367/445/396 382/444/396 383/448/396
f 361/450/397 360/446/397 375/447/397
f 361/450/400 376/451/400 377/455/400
f 373/438/401 388/471/401 389/456/401
f 381/441/402 396/472/402 397/457/402
f 375/447/403 374/442/403 389/456/403
f 382/444/404 397/457/404 398/459/404
f 376/451/405 375/447/405 390/458/405
f 376/451/408 391/460/408 392/464/408
f 370/425/409 369/453/409 384/462/409
f 377/455/410 392/464/410 393/466/410
f 370/425/411 385/465/411 386/467/411
f 379/433/412 378/428/412 393/466/412
f 371/430/413 386/467/413 387/469/413
f 379/433/414 394/468/414 395/470/414
f 373/438/415 372/434/415 387/469/415
f 381/441/416 380/436/416 395/470/416
f 392/464/417 407/488/417 408/473/417
f 385/465/418 400/489/418 401/474/418
f 394/468/419 393/466/419 408/473/419
f 386/467/420 401/474/420 402/476/420
f 394/468/421 409/475/421 410/477/421
f 388/471/422 387/469/422 402/476/422
f 396/472/423 395/470/423 410/477/423
f 388/471/424 403/478/424 404/480/424
f 397/457/425 396/472/425 411/479/425
f 390/458/426 389/456/426 404/480/426
f 397/457/427 412/481/427 413/483/427
f 391/460/428 390/458/428 405/482/428
f 391/460/431 406/484/431 407/488/431
f 384/462/432 399/486/432 400/489/432
f 411/479/433 426/506/433 427/490/433
f 405/482/434 404/480/434 419/491/434
f 412/481/435 427/490/435 428/493/435
f 406/484/436 405/482/436 420/492/436
f 406/484/439 421/494/439 422/498/439
f 399/486/440 414/496/440 415/499/440
f 407/488/441 422/498/441 423/500/441
f 400/489/442 415/499/442 416/501/442
f 409/475/443 408/473/443 423/500/443
f 401/474/444 416/501/444 417/503/444
f 409/475/445 424/502/445 425/504/445
f 403/478/446 402/476/446 417/503/446
f 411/479/447 410/477/447 425/504/447
f 403/478/448 418/505/448 419/491/448
f 416/501/449 415/499/449 430/507/449
f 424/502/450 423/500/450 438/509/450
f 416/501/451 431/508/451 432/511/451
f 424/502/452 439/510/452 440/512/452
f 418/505/453 417/503/453 432/511/453
f 426/506/454 425/504/454 440/512/454
f 418/505/455 433/513/455 434/515/455
f 426/506/456 441/514/456 442/516/456
f 420/492/457 419/491/457 434/515/457
f 427/490/458 442/516/458 443/518/458
f 421/494/459 420/492/459 435/517/459
f 421/494/462 436/519/462 437/523/462
f 414/496/463 429/521/463 430/507/463
f 422/498/464 437/523/464 438/509/464
f 435/517/465 434/515/465 449/524/465
f 442/516/466 457/540/466 458/526/466
f 436/519/467 435/517/467 450/525/467
f 436/519/470 451/527/470 452/531/470
f 429/521/471 444/529/471 445/532/471
f 437/523/472 452/531/472 453/533/472
f 431/508/473 430/507/473 445/532/473
f 439/510/474 438/509/474 453/533/474
f 431/508/475 446/534/475 447/536/475
f 439/510/476 454/535/476 455/537/476
f 433/513/477 432/511/477 447/536/477
f 441/514/478 440/512/478 455/537/478
f 433/513/479 448/538/479 449/524/479
f 441/514/480 456/539/480 457/540/480
f 454/535/481 453/533/481 468/541/481
f 446/534/482 461/557/482 462/543/482
f 454/535/483 469/542/483 470/544/483
f 448/538/484 447/536/484 462/543/484
f 456/539/485 455/537/485 470/544/485
f 448/538/486 463/545/486 464/547/486
f 456/539/487 471/546/487 472/548/487
f 450/525/488 449/524/488 464/547/488
f 458/526/489 457/540/489 472/548/489
f 451/527/490 450/525/490 465/549/490
f 451/527/493 466/551/493 467/555/493
f 444/529/494 459/553/494 460/556/494
f 452/531/495 467/555/495 468/541/495
f 445/532/496 460/556/496 461/557/496
f 472/548/497 481/1/497 482/3/497
f 466/551/498 465/549/498 4/4/498
f 466/551/501 5/6/501 6/12/501
f 459/553/502 474/7/502 475/13/502
f 467/555/503 6/12/503 478/15/503
f 461/557/504 460/556/504 475/13/504
f 469/542/505 468/541/505 478/15/505
f 462/543/506 461/557/506 2/17/506
f 469/542/507 7/20/507 479/24/507
f 463/545/508 462/543/508 476/22/508
f 471/546/509 470/544/509 479/24/509
f 464/547/510 463/545/510 3/25/510
f 471/546/511 480/28/511 481/1/511
f 465/549/512 464/547/512 477/29/512
